<svg xmlns="http://www.w3.org/2000/svg" xmlns:xlink="http://www.w3.org/1999/xlink" width="500" zoomAndPan="magnify" viewBox="0 0 375 374.999991" height="500" preserveAspectRatio="xMidYMid meet" version="1.0"><defs><g/><clipPath id="daad80d6fd"><path d="M 54.085938 36 L 306.085938 36 L 306.085938 293 L 54.085938 293 Z M 54.085938 36 " clip-rule="nonzero"/></clipPath><clipPath id="bc323a2705"><path d="M 278 70 L 320.648438 70 L 320.648438 112 L 278 112 Z M 278 70 " clip-rule="nonzero"/></clipPath><clipPath id="1ed4ebbd20"><path d="M 30.929688 5.261719 L 267 5.261719 L 267 293.261719 L 30.929688 293.261719 Z M 30.929688 5.261719 " clip-rule="nonzero"/></clipPath></defs><g clip-path="url(#daad80d6fd)"><path fill="#cca0a0" d="M 306.027344 156.242188 C 305.988281 194.394531 293.835938 228.171875 268.65625 256.90625 C 252.3125 275.558594 231.839844 287.511719 207.074219 291.304688 C 194.671875 293.203125 182.203125 292.894531 170.144531 289.300781 C 152.121094 283.921875 134.253906 278.015625 116.335938 272.285156 C 92.917969 264.792969 78.074219 248.605469 69.476562 226.050781 C 65.101562 214.574219 62.46875 202.679688 60.722656 190.578125 C 58.5625 175.632812 56.117188 160.707031 54.738281 145.6875 C 54.089844 138.609375 54.863281 131.164062 56.355469 124.175781 C 59.089844 111.378906 67.269531 102.136719 78.019531 95.03125 C 89.320312 87.5625 101.976562 83.902344 115.1875 81.980469 C 126.238281 80.371094 137.414062 79.53125 148.414062 77.648438 C 166.546875 74.542969 183.15625 67.019531 199.351562 58.617188 C 207.429688 54.425781 215.277344 49.796875 223.316406 45.519531 C 230.640625 41.625 238.234375 38.410156 246.515625 37.035156 C 261.683594 34.519531 273.761719 39.917969 283.21875 51.550781 C 286.683594 55.847656 289.582031 60.496094 291.914062 65.5 C 294.246094 70.503906 295.941406 75.710938 297.003906 81.128906 C 302.027344 105.886719 305.886719 130.828125 306.027344 156.242188 Z M 306.027344 156.242188 " fill-opacity="1" fill-rule="nonzero"/></g><path fill="#bf8a03" d="M 308.265625 128.394531 C 313 133.417969 315.933594 139.921875 317.722656 146.589844 C 319.988281 155.046875 320.492188 164.160156 317.847656 172.507812 C 306.160156 209.371094 245.925781 207.136719 237.421875 169.457031 C 229.285156 133.382812 281.203125 99.683594 308.265625 128.394531 Z M 308.265625 128.394531 " fill-opacity="1" fill-rule="nonzero"/><g fill="#000000" fill-opacity="1"><g transform="translate(80.975579, 334.550538)"><g><path d="M 10.6875 -30.03125 C 11.914062 -30.03125 12.882812 -29.894531 13.59375 -29.625 C 14.300781 -29.363281 15.03125 -28.984375 15.78125 -28.484375 C 16.394531 -28.097656 16.867188 -27.90625 17.203125 -27.90625 C 17.453125 -27.90625 17.644531 -28.050781 17.78125 -28.34375 C 17.925781 -28.632812 18.039062 -29.097656 18.125 -29.734375 L 19.09375 -29.734375 C 18.945312 -28.117188 18.875 -25.28125 18.875 -21.21875 L 17.921875 -21.21875 C 17.753906 -23.46875 17.101562 -25.363281 15.96875 -26.90625 C 14.84375 -28.457031 13.207031 -29.234375 11.0625 -29.234375 C 9.5625 -29.234375 8.335938 -28.78125 7.390625 -27.875 C 6.441406 -26.96875 5.96875 -25.804688 5.96875 -24.390625 C 5.96875 -23.328125 6.210938 -22.40625 6.703125 -21.625 C 7.191406 -20.851562 7.8125 -20.1875 8.5625 -19.625 C 9.3125 -19.070312 10.382812 -18.363281 11.78125 -17.5 L 12.984375 -16.75 C 14.742188 -15.664062 16.128906 -14.710938 17.140625 -13.890625 C 18.160156 -13.066406 18.972656 -12.125 19.578125 -11.0625 C 20.191406 -10.007812 20.5 -8.769531 20.5 -7.34375 C 20.5 -4.8125 19.664062 -2.859375 18 -1.484375 C 16.332031 -0.109375 14.21875 0.578125 11.65625 0.578125 C 10.3125 0.578125 9.210938 0.4375 8.359375 0.15625 C 7.515625 -0.113281 6.707031 -0.484375 5.9375 -0.953125 C 5.320312 -1.347656 4.847656 -1.546875 4.515625 -1.546875 C 4.265625 -1.546875 4.066406 -1.398438 3.921875 -1.109375 C 3.785156 -0.816406 3.675781 -0.347656 3.59375 0.296875 L 2.625 0.296875 C 2.738281 -1.234375 2.796875 -4.578125 2.796875 -9.734375 L 3.765625 -9.734375 C 3.953125 -6.921875 4.644531 -4.632812 5.84375 -2.875 C 7.039062 -1.125 8.878906 -0.25 11.359375 -0.25 C 12.859375 -0.25 14.140625 -0.710938 15.203125 -1.640625 C 16.265625 -2.578125 16.796875 -3.96875 16.796875 -5.8125 C 16.796875 -7.363281 16.269531 -8.679688 15.21875 -9.765625 C 14.175781 -10.859375 12.53125 -12.085938 10.28125 -13.453125 C 8.632812 -14.453125 7.300781 -15.34375 6.28125 -16.125 C 5.269531 -16.90625 4.441406 -17.84375 3.796875 -18.9375 C 3.160156 -20.039062 2.84375 -21.328125 2.84375 -22.796875 C 2.84375 -25.140625 3.59375 -26.929688 5.09375 -28.171875 C 6.59375 -29.410156 8.457031 -30.03125 10.6875 -30.03125 Z M 10.6875 -30.03125 "/></g></g></g><g fill="#000000" fill-opacity="1"><g transform="translate(105.234664, 334.550538)"><g><path d="M 23.640625 -3.390625 C 24.109375 -2.691406 24.628906 -2.140625 25.203125 -1.734375 C 25.773438 -1.328125 26.476562 -1.023438 27.3125 -0.828125 L 27.3125 0 C 25.976562 -0.0820312 24.304688 -0.125 22.296875 -0.125 C 20.796875 -0.125 19.363281 -0.0820312 18 0 L 18 -0.828125 C 18.664062 -0.859375 19.148438 -0.941406 19.453125 -1.078125 C 19.765625 -1.222656 19.921875 -1.4375 19.921875 -1.71875 C 19.921875 -1.988281 19.78125 -2.320312 19.5 -2.71875 L 13.40625 -11.90625 C 12.601562 -13.125 11.921875 -13.921875 11.359375 -14.296875 C 10.804688 -14.679688 10.023438 -14.898438 9.015625 -14.953125 L 9.015625 -4.421875 C 9.015625 -3.367188 9.097656 -2.601562 9.265625 -2.125 C 9.429688 -1.65625 9.742188 -1.335938 10.203125 -1.171875 C 10.671875 -1.003906 11.40625 -0.890625 12.40625 -0.828125 L 12.40625 0 C 11.125 -0.0820312 9.351562 -0.125 7.09375 -0.125 C 4.707031 -0.125 2.925781 -0.0820312 1.75 0 L 1.75 -0.828125 C 2.75 -0.890625 3.476562 -1.003906 3.9375 -1.171875 C 4.40625 -1.335938 4.722656 -1.65625 4.890625 -2.125 C 5.054688 -2.601562 5.140625 -3.367188 5.140625 -4.421875 L 5.140625 -25.140625 C 5.140625 -26.203125 5.054688 -26.96875 4.890625 -27.4375 C 4.722656 -27.914062 4.40625 -28.238281 3.9375 -28.40625 C 3.476562 -28.570312 2.75 -28.679688 1.75 -28.734375 L 1.75 -29.5625 C 2.925781 -29.476562 4.707031 -29.4375 7.09375 -29.4375 C 9.320312 -29.4375 11.09375 -29.476562 12.40625 -29.5625 L 12.40625 -28.734375 C 11.40625 -28.679688 10.671875 -28.570312 10.203125 -28.40625 C 9.742188 -28.238281 9.429688 -27.914062 9.265625 -27.4375 C 9.097656 -26.96875 9.015625 -26.203125 9.015625 -25.140625 L 9.015625 -15.78125 C 11.046875 -15.863281 12.632812 -16.644531 13.78125 -18.125 L 17.796875 -23.21875 C 19.210938 -24.976562 19.921875 -26.316406 19.921875 -27.234375 C 19.921875 -28.203125 19.054688 -28.703125 17.328125 -28.734375 L 17.328125 -29.5625 C 18.921875 -29.476562 20.523438 -29.4375 22.140625 -29.4375 C 23.671875 -29.4375 24.851562 -29.476562 25.6875 -29.5625 L 25.6875 -28.734375 C 24.769531 -28.597656 23.90625 -28.296875 23.09375 -27.828125 C 22.289062 -27.367188 21.507812 -26.65625 20.75 -25.6875 L 13.953125 -16.953125 Z M 23.640625 -3.390625 "/></g></g></g><g fill="#000000" fill-opacity="1"><g transform="translate(134.295241, 334.550538)"><g><path d="M 12.40625 -28.734375 C 11.40625 -28.679688 10.671875 -28.570312 10.203125 -28.40625 C 9.742188 -28.238281 9.429688 -27.914062 9.265625 -27.4375 C 9.097656 -26.96875 9.015625 -26.203125 9.015625 -25.140625 L 9.015625 -4.421875 C 9.015625 -3.367188 9.097656 -2.601562 9.265625 -2.125 C 9.429688 -1.65625 9.742188 -1.335938 10.203125 -1.171875 C 10.671875 -1.003906 11.40625 -0.890625 12.40625 -0.828125 L 12.40625 0 C 11.125 -0.0820312 9.351562 -0.125 7.09375 -0.125 C 4.707031 -0.125 2.925781 -0.0820312 1.75 0 L 1.75 -0.828125 C 2.75 -0.890625 3.476562 -1.003906 3.9375 -1.171875 C 4.40625 -1.335938 4.722656 -1.65625 4.890625 -2.125 C 5.054688 -2.601562 5.140625 -3.367188 5.140625 -4.421875 L 5.140625 -25.140625 C 5.140625 -26.203125 5.054688 -26.96875 4.890625 -27.4375 C 4.722656 -27.914062 4.40625 -28.238281 3.9375 -28.40625 C 3.476562 -28.570312 2.75 -28.679688 1.75 -28.734375 L 1.75 -29.5625 C 2.925781 -29.476562 4.707031 -29.4375 7.09375 -29.4375 C 9.320312 -29.4375 11.09375 -29.476562 12.40625 -29.5625 Z M 12.40625 -28.734375 "/></g></g></g><g fill="#000000" fill-opacity="1"><g transform="translate(150.162169, 334.550538)"><g><path d="M 27.984375 -28.734375 C 27.003906 -28.679688 26.273438 -28.535156 25.796875 -28.296875 C 25.328125 -28.054688 25.007812 -27.664062 24.84375 -27.125 C 24.675781 -26.582031 24.59375 -25.78125 24.59375 -24.71875 L 24.59375 0.203125 L 23.640625 0.203125 L 6.09375 -26.890625 L 6.09375 -4.84375 C 6.09375 -3.757812 6.179688 -2.953125 6.359375 -2.421875 C 6.546875 -1.890625 6.90625 -1.503906 7.4375 -1.265625 C 7.96875 -1.035156 8.789062 -0.890625 9.90625 -0.828125 L 9.90625 0 C 8.894531 -0.0820312 7.472656 -0.125 5.640625 -0.125 C 3.960938 -0.125 2.664062 -0.0820312 1.75 0 L 1.75 -0.828125 C 2.726562 -0.890625 3.453125 -1.035156 3.921875 -1.265625 C 4.398438 -1.503906 4.722656 -1.894531 4.890625 -2.4375 C 5.054688 -2.976562 5.140625 -3.78125 5.140625 -4.84375 L 5.140625 -25.140625 C 5.140625 -26.203125 5.054688 -26.96875 4.890625 -27.4375 C 4.722656 -27.914062 4.40625 -28.238281 3.9375 -28.40625 C 3.476562 -28.570312 2.75 -28.679688 1.75 -28.734375 L 1.75 -29.5625 C 2.664062 -29.476562 3.960938 -29.4375 5.640625 -29.4375 C 6.890625 -29.4375 7.972656 -29.476562 8.890625 -29.5625 L 23.640625 -6.84375 L 23.640625 -24.71875 C 23.640625 -25.8125 23.546875 -26.617188 23.359375 -27.140625 C 23.179688 -27.671875 22.828125 -28.054688 22.296875 -28.296875 C 21.773438 -28.535156 20.957031 -28.679688 19.84375 -28.734375 L 19.84375 -29.5625 C 20.84375 -29.476562 22.257812 -29.4375 24.09375 -29.4375 C 25.769531 -29.4375 27.066406 -29.476562 27.984375 -29.5625 Z M 27.984375 -28.734375 "/></g></g></g><g fill="#000000" fill-opacity="1"><g transform="translate(181.352124, 334.550538)"><g><path d="M 15.5 -30.15625 C 17.164062 -30.15625 18.582031 -29.914062 19.75 -29.4375 C 20.925781 -28.96875 22.070312 -28.300781 23.1875 -27.4375 C 23.488281 -27.1875 23.75 -27.0625 23.96875 -27.0625 C 24.53125 -27.0625 24.894531 -27.894531 25.0625 -29.5625 L 26.015625 -29.5625 C 25.910156 -27.757812 25.859375 -24.5625 25.859375 -19.96875 L 24.890625 -19.96875 C 24.585938 -21.769531 24.3125 -23.066406 24.0625 -23.859375 C 23.8125 -24.660156 23.390625 -25.421875 22.796875 -26.140625 C 21.960938 -27.234375 20.898438 -28.050781 19.609375 -28.59375 C 18.316406 -29.132812 16.914062 -29.40625 15.40625 -29.40625 C 13.601562 -29.40625 12.023438 -28.804688 10.671875 -27.609375 C 9.316406 -26.410156 8.265625 -24.703125 7.515625 -22.484375 C 6.765625 -20.273438 6.390625 -17.679688 6.390625 -14.703125 C 6.390625 -11.671875 6.789062 -9.066406 7.59375 -6.890625 C 8.40625 -4.722656 9.523438 -3.070312 10.953125 -1.9375 C 12.390625 -0.8125 14.015625 -0.25 15.828125 -0.25 C 17.222656 -0.25 18.570312 -0.515625 19.875 -1.046875 C 21.1875 -1.578125 22.21875 -2.367188 22.96875 -3.421875 C 23.53125 -4.203125 23.9375 -5.035156 24.1875 -5.921875 C 24.4375 -6.816406 24.671875 -8.1875 24.890625 -10.03125 L 25.859375 -10.03125 C 25.859375 -5.238281 25.910156 -1.894531 26.015625 0 L 25.0625 0 C 24.976562 -0.894531 24.859375 -1.53125 24.703125 -1.90625 C 24.546875 -2.28125 24.332031 -2.46875 24.0625 -2.46875 C 23.832031 -2.46875 23.539062 -2.351562 23.1875 -2.125 C 21.925781 -1.238281 20.722656 -0.566406 19.578125 -0.109375 C 18.441406 0.347656 17.066406 0.578125 15.453125 0.578125 C 12.804688 0.578125 10.488281 -0.015625 8.5 -1.203125 C 6.507812 -2.398438 4.960938 -4.132812 3.859375 -6.40625 C 2.765625 -8.675781 2.21875 -11.382812 2.21875 -14.53125 C 2.21875 -17.59375 2.78125 -20.304688 3.90625 -22.671875 C 5.03125 -25.046875 6.601562 -26.882812 8.625 -28.1875 C 10.644531 -29.5 12.9375 -30.15625 15.5 -30.15625 Z M 15.5 -30.15625 "/></g></g></g><g fill="#000000" fill-opacity="1"><g transform="translate(211.79053, 334.550538)"><g><path d="M 23.6875 -3.515625 C 24.351562 -1.785156 25.3125 -0.890625 26.5625 -0.828125 L 26.5625 0 C 25.445312 -0.0820312 23.957031 -0.125 22.09375 -0.125 C 19.695312 -0.125 17.914062 -0.0820312 16.75 0 L 16.75 -0.828125 C 17.800781 -0.890625 18.554688 -1.023438 19.015625 -1.234375 C 19.484375 -1.441406 19.71875 -1.820312 19.71875 -2.375 C 19.71875 -2.851562 19.550781 -3.507812 19.21875 -4.34375 L 16.671875 -11.1875 L 6.5625 -11.1875 L 4.84375 -6.765625 C 4.289062 -5.265625 4.015625 -4.125 4.015625 -3.34375 C 4.015625 -2.476562 4.3125 -1.847656 4.90625 -1.453125 C 5.507812 -1.066406 6.421875 -0.859375 7.640625 -0.828125 L 7.640625 0 C 6.054688 -0.0820312 4.457031 -0.125 2.84375 -0.125 C 1.582031 -0.125 0.535156 -0.0820312 -0.296875 0 L -0.296875 -0.828125 C 1.097656 -1.171875 2.195312 -2.382812 3 -4.46875 L 12.828125 -29.78125 L 13.484375 -29.78125 Z M 16.328125 -12.03125 L 11.65625 -24.515625 L 6.890625 -12.03125 Z M 16.328125 -12.03125 "/></g></g></g><g fill="#000000" fill-opacity="1"><g transform="translate(239.807304, 334.550538)"><g><path d="M 27.5625 -2.09375 C 26.925781 -1.144531 26.285156 -0.460938 25.640625 -0.046875 C 25.003906 0.367188 24.15625 0.578125 23.09375 0.578125 C 21.957031 0.578125 21.019531 0.242188 20.28125 -0.421875 C 19.539062 -1.085938 18.988281 -2.253906 18.625 -3.921875 L 17.703125 -8.109375 C 17.367188 -9.554688 17.054688 -10.664062 16.765625 -11.4375 C 16.472656 -12.21875 16.035156 -12.84375 15.453125 -13.3125 C 14.867188 -13.789062 14.046875 -14.03125 12.984375 -14.03125 L 9.015625 -14.03125 L 9.015625 -4.421875 C 9.015625 -3.367188 9.097656 -2.601562 9.265625 -2.125 C 9.429688 -1.65625 9.742188 -1.335938 10.203125 -1.171875 C 10.671875 -1.003906 11.40625 -0.890625 12.40625 -0.828125 L 12.40625 0 C 11.125 -0.0820312 9.351562 -0.125 7.09375 -0.125 C 4.707031 -0.125 2.925781 -0.0820312 1.75 0 L 1.75 -0.828125 C 2.75 -0.890625 3.476562 -1.003906 3.9375 -1.171875 C 4.40625 -1.335938 4.722656 -1.65625 4.890625 -2.125 C 5.054688 -2.601562 5.140625 -3.367188 5.140625 -4.421875 L 5.140625 -25.140625 C 5.140625 -26.203125 5.054688 -26.96875 4.890625 -27.4375 C 4.722656 -27.914062 4.40625 -28.238281 3.9375 -28.40625 C 3.476562 -28.570312 2.75 -28.679688 1.75 -28.734375 L 1.75 -29.5625 C 2.925781 -29.476562 4.625 -29.4375 6.84375 -29.4375 L 11.359375 -29.484375 C 11.890625 -29.515625 12.488281 -29.53125 13.15625 -29.53125 C 16.382812 -29.53125 18.867188 -28.851562 20.609375 -27.5 C 22.347656 -26.15625 23.21875 -24.410156 23.21875 -22.265625 C 23.21875 -21.171875 22.957031 -20.070312 22.4375 -18.96875 C 21.925781 -17.875 21.066406 -16.890625 19.859375 -16.015625 C 18.648438 -15.140625 17.070312 -14.546875 15.125 -14.234375 L 15.625 -14.15625 C 17.457031 -13.851562 18.789062 -13.296875 19.625 -12.484375 C 20.46875 -11.679688 21.082031 -10.398438 21.46875 -8.640625 L 22.515625 -4.390625 C 22.785156 -3.109375 23.070312 -2.210938 23.375 -1.703125 C 23.6875 -1.203125 24.109375 -0.953125 24.640625 -0.953125 C 25.117188 -0.953125 25.515625 -1.078125 25.828125 -1.328125 C 26.148438 -1.585938 26.519531 -1.992188 26.9375 -2.546875 Z M 12.109375 -28.734375 C 11.242188 -28.734375 10.59375 -28.632812 10.15625 -28.4375 C 9.726562 -28.25 9.429688 -27.898438 9.265625 -27.390625 C 9.097656 -26.890625 9.015625 -26.140625 9.015625 -25.140625 L 9.015625 -14.875 L 11.8125 -14.875 C 14.570312 -14.875 16.46875 -15.484375 17.5 -16.703125 C 18.53125 -17.929688 19.046875 -19.628906 19.046875 -21.796875 C 19.046875 -24.078125 18.5 -25.800781 17.40625 -26.96875 C 16.320312 -28.144531 14.554688 -28.734375 12.109375 -28.734375 Z M 12.109375 -28.734375 "/></g></g></g><g fill="#000000" fill-opacity="1"><g transform="translate(268.575619, 334.550538)"><g><path d="M 23.140625 -5.34375 C 23.140625 -3.757812 23.238281 -1.976562 23.4375 0 C 21.539062 -0.0820312 18.347656 -0.125 13.859375 -0.125 C 8.515625 -0.125 4.476562 -0.0820312 1.75 0 L 1.75 -0.828125 C 2.75 -0.890625 3.476562 -1.003906 3.9375 -1.171875 C 4.40625 -1.335938 4.722656 -1.65625 4.890625 -2.125 C 5.054688 -2.601562 5.140625 -3.367188 5.140625 -4.421875 L 5.140625 -25.140625 C 5.140625 -26.203125 5.054688 -26.96875 4.890625 -27.4375 C 4.722656 -27.914062 4.40625 -28.238281 3.9375 -28.40625 C 3.476562 -28.570312 2.75 -28.679688 1.75 -28.734375 L 1.75 -29.5625 C 4.476562 -29.476562 8.515625 -29.4375 13.859375 -29.4375 C 17.953125 -29.4375 20.863281 -29.476562 22.59375 -29.5625 C 22.394531 -27.726562 22.296875 -26.085938 22.296875 -24.640625 C 22.296875 -23.554688 22.335938 -22.691406 22.421875 -22.046875 L 21.46875 -22.046875 C 21.269531 -23.859375 21.015625 -25.203125 20.703125 -26.078125 C 20.398438 -26.953125 19.882812 -27.59375 19.15625 -28 C 18.4375 -28.40625 17.34375 -28.609375 15.875 -28.609375 L 12.40625 -28.609375 C 11.40625 -28.609375 10.671875 -28.53125 10.203125 -28.375 C 9.742188 -28.226562 9.429688 -27.914062 9.265625 -27.4375 C 9.097656 -26.96875 9.015625 -26.203125 9.015625 -25.140625 L 9.015625 -15.28125 L 11.78125 -15.28125 C 12.75 -15.28125 13.5 -15.507812 14.03125 -15.96875 C 14.5625 -16.4375 14.914062 -16.984375 15.09375 -17.609375 C 15.28125 -18.234375 15.425781 -19.019531 15.53125 -19.96875 L 15.65625 -20.796875 L 16.625 -20.796875 C 16.539062 -19.628906 16.5 -18.320312 16.5 -16.875 L 16.5 -14.875 C 16.5 -13.445312 16.582031 -11.46875 16.75 -8.9375 L 15.78125 -8.9375 C 15.757812 -9.132812 15.675781 -9.8125 15.53125 -10.96875 C 15.394531 -12.125 15.015625 -12.992188 14.390625 -13.578125 C 13.765625 -14.160156 12.894531 -14.453125 11.78125 -14.453125 L 9.015625 -14.453125 L 9.015625 -4.421875 C 9.015625 -3.367188 9.097656 -2.601562 9.265625 -2.125 C 9.429688 -1.65625 9.742188 -1.34375 10.203125 -1.1875 C 10.671875 -1.03125 11.40625 -0.953125 12.40625 -0.953125 L 15.453125 -0.953125 C 17.179688 -0.953125 18.492188 -1.179688 19.390625 -1.640625 C 20.296875 -2.109375 20.957031 -2.847656 21.375 -3.859375 C 21.800781 -4.878906 22.109375 -6.378906 22.296875 -8.359375 L 23.265625 -8.359375 C 23.179688 -7.597656 23.140625 -6.59375 23.140625 -5.34375 Z M 23.140625 -5.34375 "/></g></g></g><g fill="#000000" fill-opacity="1"><g transform="translate(122.986688, 364.441547)"><g><path d="M 2.046875 -14.671875 L 6.296875 -14.671875 C 7.859375 -14.671875 9.082031 -14.375 9.96875 -13.78125 C 10.851562 -13.195312 11.296875 -12.296875 11.296875 -11.078125 C 11.296875 -10.328125 11.101562 -9.664062 10.71875 -9.09375 C 10.332031 -8.519531 9.796875 -8.125 9.109375 -7.90625 L 9.109375 -7.8125 C 10.046875 -7.632812 10.785156 -7.242188 11.328125 -6.640625 C 11.867188 -6.035156 12.140625 -5.25 12.140625 -4.28125 C 12.140625 -2.882812 11.644531 -1.820312 10.65625 -1.09375 C 9.664062 -0.363281 8.320312 0 6.625 0 L 2.046875 0 Z M 5.96875 -8.375 C 8.4375 -8.375 9.671875 -9.207031 9.671875 -10.875 C 9.671875 -11.75 9.367188 -12.378906 8.765625 -12.765625 C 8.171875 -13.160156 7.265625 -13.359375 6.046875 -13.359375 L 3.703125 -13.359375 L 3.703125 -8.375 Z M 6.359375 -1.3125 C 7.703125 -1.3125 8.726562 -1.5625 9.4375 -2.0625 C 10.15625 -2.5625 10.515625 -3.316406 10.515625 -4.328125 C 10.515625 -6.171875 9.128906 -7.09375 6.359375 -7.09375 L 3.703125 -7.09375 L 3.703125 -1.3125 Z M 6.359375 -1.3125 "/></g></g></g><g fill="#000000" fill-opacity="1"><g transform="translate(138.303137, 364.441547)"><g><path d="M 4.40625 -5.765625 L 0 -14.671875 L 1.765625 -14.671875 L 3.734375 -10.40625 L 4.109375 -9.578125 C 4.703125 -8.285156 5.066406 -7.503906 5.203125 -7.234375 L 5.296875 -7.234375 L 5.671875 -8.015625 C 6.296875 -9.328125 6.664062 -10.125 6.78125 -10.40625 L 8.75 -14.671875 L 10.46875 -14.671875 L 6.046875 -5.765625 L 6.046875 0 L 4.40625 0 Z M 4.40625 -5.765625 "/></g></g></g><g fill="#000000" fill-opacity="1"><g transform="translate(151.007647, 364.441547)"><g/></g></g><g fill="#000000" fill-opacity="1"><g transform="translate(157.729228, 364.441547)"><g><path d="M 2.046875 -14.671875 L 3.703125 -14.671875 L 3.703125 -8.46875 L 10.78125 -8.46875 L 10.78125 -14.671875 L 12.4375 -14.671875 L 12.4375 0 L 10.78125 0 L 10.78125 -7.015625 L 3.703125 -7.015625 L 3.703125 0 L 2.046875 0 Z M 2.046875 -14.671875 "/></g></g></g><g fill="#000000" fill-opacity="1"><g transform="translate(174.45211, 364.441547)"><g><path d="M 8.734375 -4.625 L 3.265625 -4.625 L 1.765625 0 L 0.09375 0 L 5.109375 -14.671875 L 6.9375 -14.671875 L 11.953125 0 L 10.203125 0 Z M 8.3125 -5.9375 L 7.546875 -8.3125 C 6.953125 -10.164062 6.445312 -11.820312 6.03125 -13.28125 L 5.9375 -13.28125 C 5.445312 -11.476562 4.945312 -9.820312 4.4375 -8.3125 L 3.6875 -5.9375 Z M 8.3125 -5.9375 "/></g></g></g><g fill="#000000" fill-opacity="1"><g transform="translate(188.741646, 364.441547)"><g><path d="M 2.046875 -14.671875 L 4.09375 -14.671875 L 6.96875 -6.625 L 8.03125 -3.53125 L 8.125 -3.53125 C 8.226562 -3.8125 8.367188 -4.234375 8.546875 -4.796875 C 8.785156 -5.515625 8.992188 -6.125 9.171875 -6.625 L 12.015625 -14.671875 L 14.0625 -14.671875 L 14.0625 0 L 12.53125 0 L 12.53125 -8.484375 C 12.53125 -9.378906 12.597656 -10.796875 12.734375 -12.734375 L 12.640625 -12.734375 L 11.484375 -9.40625 L 8.625 -1.515625 L 7.453125 -1.515625 L 4.578125 -9.40625 L 3.421875 -12.734375 L 3.328125 -12.734375 L 3.375 -12.171875 C 3.488281 -10.585938 3.546875 -9.359375 3.546875 -8.484375 L 3.546875 0 L 2.046875 0 Z M 2.046875 -14.671875 "/></g></g></g><g fill="#000000" fill-opacity="1"><g transform="translate(207.094206, 364.441547)"><g><path d="M 2.046875 -14.671875 L 4.09375 -14.671875 L 6.96875 -6.625 L 8.03125 -3.53125 L 8.125 -3.53125 C 8.226562 -3.8125 8.367188 -4.234375 8.546875 -4.796875 C 8.785156 -5.515625 8.992188 -6.125 9.171875 -6.625 L 12.015625 -14.671875 L 14.0625 -14.671875 L 14.0625 0 L 12.53125 0 L 12.53125 -8.484375 C 12.53125 -9.378906 12.597656 -10.796875 12.734375 -12.734375 L 12.640625 -12.734375 L 11.484375 -9.40625 L 8.625 -1.515625 L 7.453125 -1.515625 L 4.578125 -9.40625 L 3.421875 -12.734375 L 3.328125 -12.734375 L 3.375 -12.171875 C 3.488281 -10.585938 3.546875 -9.359375 3.546875 -8.484375 L 3.546875 0 L 2.046875 0 Z M 2.046875 -14.671875 "/></g></g></g><g fill="#000000" fill-opacity="1"><g transform="translate(225.446765, 364.441547)"><g><path d="M 2.046875 -14.671875 L 10.375 -14.671875 L 10.375 -13.265625 L 3.703125 -13.265625 L 3.703125 -8.421875 L 9.328125 -8.421875 L 9.328125 -7.03125 L 3.703125 -7.03125 L 3.703125 -1.40625 L 10.609375 -1.40625 L 10.609375 0 L 2.046875 0 Z M 2.046875 -14.671875 "/></g></g></g><g fill="#000000" fill-opacity="1"><g transform="translate(239.401439, 364.441547)"><g><path d="M 10.109375 0 L 6.46875 -6.34375 L 3.703125 -6.34375 L 3.703125 0 L 2.046875 0 L 2.046875 -14.671875 L 6.546875 -14.671875 C 9.910156 -14.671875 11.59375 -13.316406 11.59375 -10.609375 C 11.59375 -9.492188 11.289062 -8.582031 10.6875 -7.875 C 10.082031 -7.175781 9.242188 -6.71875 8.171875 -6.5 L 11.984375 0 Z M 3.703125 -7.6875 L 6.28125 -7.6875 C 7.46875 -7.6875 8.375 -7.929688 9 -8.421875 C 9.625 -8.910156 9.9375 -9.640625 9.9375 -10.609375 C 9.9375 -11.578125 9.628906 -12.269531 9.015625 -12.6875 C 8.410156 -13.113281 7.5 -13.328125 6.28125 -13.328125 L 3.703125 -13.328125 Z M 3.703125 -7.6875 "/></g></g></g><g clip-path="url(#bc323a2705)"><path fill="#74384f" d="M 314.339844 76.140625 C 316.703125 78.648438 318.167969 81.894531 319.0625 85.226562 C 320.191406 89.449219 320.445312 94 319.125 98.167969 C 313.289062 116.574219 283.210938 115.460938 278.960938 96.644531 C 274.898438 78.632812 300.824219 61.804688 314.339844 76.140625 Z M 314.339844 76.140625 " fill-opacity="1" fill-rule="nonzero"/></g><g clip-path="url(#1ed4ebbd20)"><path fill="#000000" d="M 259.511719 97.273438 C 259.953125 97.335938 260.460938 97.464844 260.96875 97.464844 L 261.09375 95.878906 C 260.460938 95.816406 259.828125 95.6875 259.191406 95.5625 C 259.066406 94.800781 259.003906 94.039062 259.003906 93.214844 C 259.953125 93.53125 261.09375 93.785156 262.363281 93.785156 C 263.503906 93.785156 264.710938 93.59375 266.105469 93.214844 L 265.664062 91.691406 C 262.746094 92.582031 260.589844 92.199219 259.003906 91.503906 C 259.066406 89.15625 259.382812 86.683594 260.144531 83.890625 C 263.632812 71.585938 264.078125 64.167969 261.539062 59.855469 C 259.765625 56.808594 256.71875 55.605469 252.722656 54.714844 C 247.140625 53.449219 232.300781 58.332031 222.28125 66.324219 C 215.113281 72.03125 211.371094 78.4375 211.371094 84.78125 C 211.371094 91.757812 213.464844 100.890625 215.429688 109.707031 C 217.839844 120.296875 220.3125 131.207031 218.726562 137.039062 C 214.988281 137.230469 210.484375 138.183594 206.296875 139.070312 C 205.726562 139.199219 205.21875 139.324219 204.648438 139.449219 C 203.949219 139.070312 203.253906 138.625 202.617188 138.246094 C 200.019531 136.722656 197.796875 135.390625 195.960938 136.027344 C 194.945312 136.34375 194.246094 137.230469 193.675781 138.625 C 193.296875 139.703125 193.359375 140.59375 193.867188 141.226562 C 195.136719 142.75 198.558594 142.304688 204.394531 141.101562 C 206.359375 142.113281 208.515625 143.066406 210.863281 143.320312 C 209.976562 144.207031 209.46875 145.414062 209.40625 146.871094 C 209.214844 150.167969 209.785156 153.277344 210.230469 155.8125 C 210.230469 155.878906 210.230469 155.941406 210.292969 156.003906 C 198.179688 150.804688 187.144531 163.617188 187.015625 163.742188 L 185.175781 165.898438 L 187.839844 165.011719 C 187.90625 165.011719 194.882812 162.726562 205.21875 164.1875 C 208.328125 164.628906 210.230469 164.3125 211.371094 163.171875 C 212.578125 161.964844 212.511719 160.0625 212.195312 157.71875 C 213.65625 156.703125 220.058594 153.339844 231.921875 161.015625 C 229.128906 160.761719 225.132812 160.699219 222.722656 161.839844 C 219.300781 163.425781 213.972656 162.285156 213.910156 162.285156 L 213.65625 162.285156 C 213.210938 162.347656 212.578125 162.664062 212.324219 163.296875 C 212.003906 164.1875 212.449219 165.328125 213.78125 166.851562 C 212.449219 166.976562 209.59375 166.785156 207.183594 166.660156 C 197.796875 166.152344 190.503906 166.027344 189.171875 169.132812 C 188.476562 170.65625 189.425781 172.621094 191.964844 175.09375 C 192.40625 175.667969 196.847656 180.359375 208.328125 179.34375 C 214.414062 178.773438 215.429688 179.980469 215.492188 180.105469 C 215.558594 180.167969 215.558594 180.234375 215.492188 180.421875 C 215.175781 180.992188 214.035156 181.691406 212.703125 181.691406 C 212.324219 181.691406 211.878906 181.691406 211.371094 181.691406 C 208.390625 181.628906 203.886719 181.5 202.363281 184.417969 C 200.96875 187.144531 202.808594 191.585938 207.820312 197.992188 C 211.5625 202.8125 212.828125 206.808594 211.5625 209.976562 C 209.59375 214.734375 202.363281 216.320312 200.527344 216.703125 C 200.398438 216.703125 200.207031 216.703125 200.082031 216.765625 C 199.703125 216.703125 199.066406 216.703125 198.179688 216.890625 C 181.054688 217.527344 163.675781 205.664062 144.078125 190.570312 C 141.859375 188.859375 139.828125 187.082031 138.117188 185.304688 C 151.183594 178.457031 160.125 173.066406 155.875 143.699219 C 167.609375 138.5625 181.179688 128.921875 181.5 121.882812 C 181.625 119.15625 179.847656 117.125 176.359375 115.730469 C 171.035156 113.636719 168.304688 111.164062 168.242188 108.308594 C 168.117188 103.046875 176.933594 96.195312 193.105469 89.027344 C 206.742188 83.003906 207.757812 75.328125 208.644531 68.605469 C 209.53125 61.882812 210.355469 55.542969 223.546875 50.910156 C 250.882812 41.269531 249.617188 20.59375 249.617188 20.40625 L 249.171875 14.949219 L 248.03125 20.339844 C 247.015625 25.160156 242.320312 27.699219 228.6875 32.707031 C 215.492188 37.59375 211.625 42.792969 209.152344 50.722656 C 209.023438 51.226562 208.835938 51.671875 208.707031 52.179688 C 206.867188 58.269531 205.851562 61.566406 186 68.921875 C 184.226562 69.558594 182.386719 70.191406 180.609375 70.828125 C 178.898438 71.460938 177.121094 72.03125 175.472656 72.664062 C 175.980469 71.96875 176.425781 71.269531 176.804688 70.574219 C 177.441406 69.496094 178.199219 68.542969 179.40625 67.972656 C 181.5625 66.894531 183.65625 65.6875 186.066406 64.992188 C 186.761719 64.800781 187.460938 64.609375 188.222656 64.484375 C 190.949219 64.039062 193.675781 63.46875 196.214844 62.265625 C 196.785156 62.011719 197.355469 61.628906 197.925781 61.3125 C 198.179688 61.1875 198.371094 60.933594 198.625 60.804688 C 200.90625 59.21875 202.363281 57 203.253906 54.464844 C 203.570312 53.511719 203.761719 52.496094 203.949219 51.480469 C 204.394531 49.261719 204.839844 47.105469 205.28125 44.886719 C 205.472656 43.871094 205.472656 42.855469 205.535156 41.839844 C 205.535156 41.652344 205.601562 41.460938 205.535156 41.269531 C 205.410156 41.015625 205.28125 40.699219 205.09375 40.636719 C 204.902344 40.574219 204.585938 40.699219 204.394531 40.890625 C 203.949219 41.398438 203.507812 41.90625 203.125 42.476562 C 201.984375 44.25 200.589844 45.773438 199.003906 47.167969 C 197.734375 48.246094 196.402344 49.324219 194.816406 50.085938 C 193.296875 50.785156 191.835938 51.671875 190.378906 52.433594 C 189.109375 53.066406 187.90625 53.765625 186.828125 54.652344 C 184.988281 56.175781 183.339844 57.824219 182.007812 59.789062 C 181.433594 60.679688 180.800781 61.566406 180.230469 62.519531 C 180.421875 61.820312 180.546875 61.121094 180.738281 60.425781 C 181.117188 60.171875 181.246094 59.726562 181.371094 59.285156 C 181.816406 57.824219 182.324219 56.367188 182.703125 54.90625 C 183.019531 53.449219 183.71875 52.179688 184.667969 51.101562 C 185.367188 50.339844 186.253906 49.707031 187.144531 49.007812 C 188.855469 47.675781 190.757812 46.789062 192.851562 46.15625 C 193.421875 45.964844 193.992188 45.710938 194.628906 45.457031 C 195.007812 45.328125 195.324219 45.140625 195.707031 45.011719 C 195.894531 45.203125 196.023438 45.328125 196.214844 45.519531 C 197.226562 46.410156 198.496094 46.21875 199.195312 45.078125 C 199.320312 44.886719 199.449219 44.632812 199.511719 44.441406 C 199.636719 44.125 199.765625 43.871094 200.082031 43.679688 C 200.652344 43.300781 200.78125 42.921875 200.589844 42.601562 C 200.335938 42.160156 199.953125 42.160156 199.511719 42.285156 C 199.449219 42.285156 199.382812 42.285156 199.257812 42.285156 C 198.558594 41.652344 197.734375 40.953125 196.65625 41.460938 C 195.453125 42.03125 195.453125 43.109375 195.515625 44.378906 C 194.5 44.757812 193.421875 45.265625 192.34375 45.582031 C 189.996094 46.34375 187.839844 47.296875 185.9375 48.945312 C 185.621094 49.199219 185.304688 49.453125 184.859375 49.644531 C 185.8125 47.738281 186.382812 45.648438 187.96875 44.125 C 189.234375 42.921875 190.503906 41.714844 191.898438 40.761719 C 193.550781 39.621094 195.324219 38.988281 197.164062 38.351562 C 198.496094 37.910156 199.828125 37.339844 201.222656 36.832031 C 202.683594 36.324219 204.078125 35.816406 205.410156 35.054688 C 205.726562 34.863281 205.980469 34.863281 206.234375 35.183594 C 206.425781 35.371094 206.550781 35.5 206.742188 35.691406 C 207.503906 36.261719 208.390625 36.132812 208.898438 35.308594 C 209.214844 34.863281 209.40625 34.359375 209.722656 33.914062 C 209.847656 33.722656 210.039062 33.535156 210.167969 33.40625 C 210.546875 33.027344 210.609375 32.582031 210.417969 32.203125 C 210.167969 31.820312 209.847656 31.695312 209.214844 31.820312 C 208.960938 31.882812 208.644531 31.882812 208.328125 31.820312 C 207.691406 31.695312 207.058594 31.757812 206.488281 32.074219 C 205.535156 32.519531 205.21875 33.28125 205.410156 34.359375 C 204.394531 34.929688 203.378906 35.246094 202.363281 35.625 C 200.652344 36.195312 198.941406 36.703125 197.226562 37.273438 C 196.023438 37.65625 194.816406 38.164062 193.613281 38.605469 C 192.089844 39.179688 190.757812 40.003906 189.617188 41.144531 C 189.171875 41.589844 188.792969 41.96875 188.347656 42.347656 C 188.285156 42.285156 188.222656 42.285156 188.222656 42.285156 C 188.222656 42.285156 188.222656 42.222656 188.222656 42.222656 C 188.917969 40.699219 189.617188 39.113281 190.378906 37.59375 C 190.757812 36.832031 191.203125 36.132812 191.710938 35.4375 C 192.597656 34.292969 193.484375 33.214844 194.4375 32.074219 C 194.753906 32.136719 195.007812 32.203125 195.261719 32.203125 C 196.148438 32.265625 196.785156 31.949219 197.039062 31.125 C 197.226562 30.617188 197.542969 30.363281 198.050781 30.234375 C 198.75 30.042969 199.449219 29.855469 200.144531 29.726562 C 202.429688 29.21875 204.710938 28.714844 206.996094 28.269531 C 208.074219 28.078125 209.152344 27.824219 210.292969 27.761719 C 211.117188 27.699219 211.878906 27.382812 212.578125 27 C 213.527344 26.492188 214.542969 25.984375 215.429688 25.476562 C 215.621094 25.542969 215.683594 25.542969 215.746094 25.605469 C 217.332031 26.808594 219.300781 25.984375 219.679688 24.019531 C 219.804688 23.386719 219.742188 22.816406 220.25 22.308594 C 220.566406 22.054688 220.441406 21.546875 220.125 21.230469 C 219.804688 20.910156 219.234375 20.785156 218.855469 21.039062 C 218.664062 21.164062 218.476562 21.417969 218.285156 21.609375 C 215.746094 21.609375 215.238281 22.179688 215.367188 24.972656 C 215.050781 25.097656 214.734375 25.289062 214.480469 25.414062 C 212.578125 26.554688 210.484375 27.191406 208.199219 27.445312 C 206.042969 27.699219 203.949219 28.269531 201.859375 28.648438 C 200.398438 28.902344 198.941406 29.15625 197.417969 29.410156 C 197.101562 28.964844 197.164062 28.585938 197.542969 28.207031 C 197.925781 27.824219 198.304688 27.445312 198.6875 27.0625 C 199.636719 26.113281 200.589844 25.226562 201.476562 24.273438 C 202.429688 23.320312 203.507812 22.496094 204.710938 21.800781 C 204.839844 21.863281 204.964844 21.925781 205.15625 21.988281 C 206.742188 22.6875 208.261719 21.800781 208.136719 20.023438 C 208.074219 19.199219 208.390625 18.753906 208.960938 18.3125 C 210.292969 17.234375 211.75 16.410156 213.464844 15.902344 C 215.113281 15.457031 216.761719 14.949219 218.222656 14.0625 C 218.410156 13.933594 218.664062 14 218.917969 14.0625 C 219.871094 14.378906 220.695312 14.0625 221.519531 13.746094 C 222.28125 13.429688 222.535156 12.667969 222.535156 11.84375 C 222.535156 11.335938 222.535156 10.890625 223.042969 10.511719 C 223.421875 10.257812 223.359375 9.621094 223.042969 9.304688 C 222.722656 8.988281 222.214844 8.988281 221.835938 9.304688 C 221.710938 9.433594 221.582031 9.621094 221.457031 9.75 C 220.949219 9.6875 220.441406 9.621094 219.996094 9.621094 C 218.855469 9.6875 218.285156 10.257812 218.222656 11.460938 C 218.222656 12.03125 218.15625 12.667969 218.09375 13.363281 C 217.714844 13.429688 217.332031 13.492188 217.015625 13.617188 C 215.304688 14.125 213.65625 14.695312 211.941406 15.265625 C 211.308594 15.457031 210.738281 15.839844 210.167969 16.15625 C 209.152344 16.789062 208.199219 17.488281 207.25 18.121094 C 204.839844 17.613281 203.761719 18.566406 204.078125 20.976562 C 204.015625 21.039062 203.949219 21.164062 203.824219 21.230469 C 203.191406 21.671875 202.554688 22.117188 201.792969 22.625 C 201.859375 22.308594 201.859375 22.117188 201.921875 21.988281 C 202.617188 19.832031 203.253906 17.613281 204.078125 15.519531 C 204.773438 13.871094 205.789062 12.351562 206.679688 10.765625 C 206.804688 10.574219 207.121094 10.445312 207.3125 10.382812 C 207.757812 10.257812 208.261719 10.257812 208.707031 10.066406 C 209.660156 9.6875 210.101562 8.734375 209.847656 7.71875 C 209.722656 7.277344 209.59375 6.894531 209.847656 6.453125 C 210.101562 5.945312 209.53125 5.371094 209.089844 5.625 C 208.515625 5.878906 208.007812 5.753906 207.4375 5.816406 C 205.851562 6.007812 204.902344 8.355469 205.789062 9.6875 C 205.917969 9.875 206.105469 10.066406 206.296875 10.320312 C 205.980469 10.828125 205.726562 11.398438 205.347656 11.90625 C 204.078125 13.679688 203.191406 15.648438 202.429688 17.675781 C 201.730469 19.578125 200.84375 21.484375 200.335938 23.449219 C 200.019531 24.589844 199.320312 25.414062 198.558594 26.175781 C 198.117188 26.621094 197.609375 27.128906 197.164062 27.570312 C 196.910156 27.316406 196.785156 26.9375 196.53125 26.875 C 196.277344 26.808594 196.023438 27.128906 195.578125 27.316406 C 193.675781 27.191406 192.660156 28.394531 193.167969 30.296875 C 193.296875 30.804688 193.675781 31.3125 193.929688 31.949219 C 193.230469 32.898438 192.40625 33.914062 191.519531 35.054688 C 191.265625 34.292969 191.265625 33.660156 191.328125 33.027344 C 191.644531 29.792969 192.089844 26.554688 192.34375 23.257812 C 192.597656 20.59375 193.421875 18.121094 194.183594 15.585938 C 194.375 14.886719 194.691406 14.253906 194.945312 13.554688 C 195.199219 13.554688 195.324219 13.554688 195.515625 13.554688 C 196.65625 13.617188 197.355469 13.175781 197.671875 12.097656 C 197.734375 11.84375 197.796875 11.589844 197.796875 11.269531 C 197.796875 10.574219 197.671875 9.875 198.050781 9.179688 C 198.242188 8.859375 198.050781 8.480469 197.671875 8.226562 C 197.292969 7.972656 196.847656 7.972656 196.59375 8.289062 C 196.214844 8.796875 195.707031 8.796875 195.199219 8.859375 C 194.375 8.925781 193.929688 9.433594 193.675781 10.191406 C 193.359375 11.335938 193.550781 11.90625 194.4375 13.238281 C 193.992188 14.507812 193.550781 15.773438 193.105469 17.042969 C 191.964844 20.214844 191.457031 23.511719 191.203125 26.808594 C 191.074219 28.648438 190.757812 30.425781 190.503906 32.265625 C 190.441406 32.898438 190.316406 33.597656 190.378906 34.230469 C 190.378906 34.800781 190.316406 35.308594 190.125 35.816406 C 189.742188 36.703125 189.300781 37.527344 189.234375 38.542969 C 189.234375 38.859375 188.984375 39.179688 188.855469 39.558594 C 188.792969 39.496094 188.730469 39.429688 188.730469 39.429688 C 188.984375 37.273438 188.539062 35.183594 188.285156 33.089844 C 187.839844 29.980469 187.269531 26.9375 186.828125 23.828125 C 186.761719 23.574219 186.761719 23.386719 186.761719 23.132812 C 188.476562 22.117188 188.917969 20.085938 187.015625 18.753906 C 187.015625 18.566406 187.078125 18.375 187.078125 18.183594 C 187.078125 17.675781 186.761719 17.296875 186.253906 17.296875 C 185.8125 17.234375 185.367188 17.488281 185.304688 17.996094 C 185.242188 18.4375 185.113281 18.753906 184.796875 19.074219 C 184.667969 19.199219 184.542969 19.453125 184.542969 19.644531 C 184.667969 20.46875 184.734375 21.355469 184.988281 22.179688 C 185.175781 22.75 185.746094 23.003906 186.382812 23.132812 C 186.445312 23.386719 186.507812 23.703125 186.574219 23.957031 C 187.078125 27.699219 187.523438 31.441406 188.09375 35.183594 C 188.410156 37.273438 188.222656 39.304688 187.839844 41.335938 C 187.398438 43.871094 186 46.027344 184.988281 48.375 C 184.921875 46.34375 184.988281 44.25 184.859375 42.222656 C 184.734375 40.191406 184.480469 38.164062 183.910156 36.195312 C 184.097656 36.070312 184.289062 35.941406 184.480469 35.816406 C 185.367188 35.183594 185.558594 33.851562 184.796875 33.027344 C 184.542969 32.707031 184.289062 32.453125 184.035156 32.136719 C 183.84375 31.949219 183.71875 31.695312 183.65625 31.503906 C 183.527344 31.125 183.335938 30.804688 182.957031 30.804688 C 182.578125 30.804688 182.386719 31.058594 182.195312 31.375 C 182.070312 31.628906 181.816406 31.820312 181.625 32.011719 C 180.929688 32.390625 180.355469 32.835938 180.292969 33.722656 C 180.292969 34.613281 180.863281 35.117188 181.5625 35.5625 C 181.6875 35.625 181.878906 35.753906 182.070312 35.816406 C 183.210938 36.007812 183.527344 36.894531 183.71875 37.847656 C 183.972656 39.113281 184.097656 40.320312 184.289062 41.589844 C 184.667969 43.871094 184.542969 46.15625 184.417969 48.4375 C 184.351562 49.453125 184.164062 50.402344 183.65625 51.292969 C 183.273438 52.054688 183.019531 52.878906 182.765625 53.703125 C 182.386719 54.96875 181.941406 56.238281 181.5625 57.570312 C 181.816406 55.859375 181.941406 54.082031 181.5625 52.371094 C 180.929688 49.136719 179.847656 46.15625 177.25 43.871094 C 175.535156 42.347656 174.015625 40.699219 172.429688 39.113281 C 171.539062 38.226562 170.90625 37.210938 170.398438 36.132812 C 169.890625 34.929688 169.257812 33.785156 168.371094 32.835938 C 168.304688 32.707031 168.179688 32.644531 168.117188 32.519531 C 167.671875 32.011719 167.480469 32.011719 166.910156 32.453125 C 166.910156 32.519531 166.847656 32.582031 166.910156 32.582031 C 167.480469 34.613281 166.910156 36.640625 167.101562 38.671875 C 167.226562 39.558594 167.164062 40.511719 167.164062 41.398438 C 167.226562 43.109375 167.609375 44.695312 168.371094 46.21875 C 168.878906 47.296875 169.257812 48.4375 169.828125 49.453125 C 170.589844 51.039062 171.351562 52.6875 172.300781 54.144531 C 173.378906 55.859375 174.269531 57.570312 174.777344 59.601562 C 175.027344 60.804688 175.410156 61.945312 175.664062 63.152344 C 175.980469 64.484375 175.917969 65.816406 175.726562 67.210938 C 175.664062 67.910156 175.535156 68.605469 175.472656 69.304688 C 175.28125 70.699219 174.839844 72.09375 174.269531 73.425781 C 174.203125 73.492188 174.203125 73.617188 174.203125 73.679688 C 161.710938 78.4375 150.992188 85.035156 149.597656 104.378906 C 148.773438 102.539062 148.199219 100.636719 147.949219 98.667969 C 147.820312 97.65625 147.695312 96.640625 147.503906 95.625 C 147.25 93.660156 147.1875 91.691406 147.566406 89.789062 C 147.949219 88.078125 148.453125 86.367188 148.898438 84.652344 C 149.597656 81.796875 150.929688 79.261719 152.449219 76.789062 C 153.78125 74.632812 154.925781 72.285156 156.066406 69.9375 C 156.828125 68.417969 157.398438 66.765625 158.160156 65.246094 C 159.238281 63.023438 159.808594 60.679688 159.871094 58.207031 C 159.871094 56.875 159.808594 55.542969 159.996094 54.210938 C 160.316406 51.226562 159.492188 48.246094 160.316406 45.328125 C 160.316406 45.265625 160.316406 45.203125 160.25 45.078125 C 159.363281 44.441406 159.171875 44.441406 158.476562 45.203125 C 158.347656 45.328125 158.222656 45.519531 158.09375 45.648438 C 156.828125 47.042969 155.9375 48.691406 155.175781 50.402344 C 154.417969 52.054688 153.464844 53.511719 152.261719 54.78125 C 149.914062 57.125 147.695312 59.535156 145.21875 61.695312 C 141.542969 64.992188 139.890625 69.367188 139.003906 73.996094 C 138.496094 76.472656 138.6875 79.007812 139.003906 81.480469 C 138.433594 79.640625 137.863281 77.804688 137.292969 75.964844 C 136.910156 74.757812 136.59375 73.554688 135.960938 72.410156 C 135.261719 71.082031 134.945312 69.75 134.882812 68.289062 C 134.691406 64.992188 134.5 61.695312 135.070312 58.394531 C 135.324219 56.621094 135.578125 54.78125 135.898438 53.003906 C 136.152344 51.609375 136.59375 50.277344 138.308594 50.023438 C 138.5625 49.960938 138.75 49.832031 139.003906 49.707031 C 140.019531 49.070312 140.84375 48.3125 140.84375 47.042969 C 140.84375 45.773438 139.957031 45.140625 138.941406 44.570312 C 138.625 44.378906 138.308594 44.0625 138.117188 43.679688 C 137.863281 43.238281 137.609375 42.855469 137.039062 42.921875 C 136.402344 42.984375 136.152344 43.363281 136.023438 43.933594 C 135.898438 44.25 135.707031 44.570312 135.453125 44.886719 C 135.070312 45.328125 134.691406 45.710938 134.3125 46.15625 C 133.296875 47.359375 133.550781 49.261719 134.820312 50.214844 C 135.070312 50.402344 135.324219 50.53125 135.578125 50.722656 C 134.691406 53.574219 134.375 56.492188 134.183594 59.472656 C 133.992188 62.453125 134.058594 65.433594 133.992188 68.417969 C 132.597656 65.054688 130.570312 61.945312 129.871094 58.269531 C 129.363281 55.289062 129.046875 52.371094 129.492188 49.324219 C 130.253906 43.933594 130.949219 38.480469 131.710938 33.027344 C 131.773438 32.582031 131.902344 32.203125 131.964844 31.820312 C 132.851562 31.566406 133.742188 31.25 133.992188 30.425781 C 134.3125 29.21875 134.4375 27.953125 134.628906 26.746094 C 134.628906 26.492188 134.4375 26.113281 134.246094 25.921875 C 133.742188 25.476562 133.550781 24.972656 133.488281 24.335938 C 133.421875 23.703125 132.789062 23.320312 132.15625 23.386719 C 131.457031 23.449219 131.011719 23.957031 131.011719 24.71875 C 131.011719 25.035156 131.078125 25.289062 131.140625 25.542969 C 128.347656 27.382812 129.046875 30.425781 131.519531 31.820312 C 131.457031 32.136719 131.457031 32.453125 131.394531 32.835938 C 130.695312 37.273438 129.871094 41.777344 129.238281 46.21875 C 128.792969 49.261719 128.160156 52.308594 128.539062 55.414062 C 128.539062 55.476562 128.476562 55.542969 128.347656 55.605469 C 128.160156 55.097656 127.84375 54.652344 127.777344 54.144531 C 127.652344 52.6875 127.015625 51.480469 126.511719 50.214844 C 126.191406 49.453125 126.066406 48.753906 126.128906 47.929688 C 126.191406 46.980469 126.066406 46.027344 125.9375 45.078125 C 125.621094 42.476562 125.179688 39.8125 124.925781 37.210938 C 124.542969 32.390625 123.78125 27.636719 122.132812 23.066406 C 121.5 21.230469 120.867188 19.390625 120.230469 17.550781 C 121.5625 15.585938 121.753906 14.757812 121.308594 13.175781 C 120.992188 12.03125 120.292969 11.335938 119.152344 11.207031 C 118.390625 11.144531 117.695312 11.144531 117.125 10.382812 C 116.742188 9.875 116.109375 9.941406 115.601562 10.320312 C 115.09375 10.636719 114.839844 11.207031 115.09375 11.652344 C 115.601562 12.667969 115.472656 13.679688 115.472656 14.695312 C 115.472656 15.078125 115.601562 15.457031 115.664062 15.839844 C 116.109375 17.421875 117.125 18.121094 118.773438 17.996094 C 119.027344 17.996094 119.28125 17.996094 119.597656 17.929688 C 119.976562 18.945312 120.359375 19.898438 120.675781 20.910156 C 121.816406 24.589844 123.023438 28.207031 123.339844 32.011719 C 123.78125 36.703125 124.355469 41.398438 124.796875 46.15625 C 124.925781 47.042969 124.859375 47.992188 124.542969 49.070312 C 123.277344 47.421875 122.132812 45.964844 121.054688 44.632812 C 121.5 43.746094 122.007812 43.046875 122.195312 42.285156 C 122.957031 39.621094 121.4375 37.847656 118.707031 38.035156 C 118.136719 37.71875 117.695312 37.339844 117.378906 37.402344 C 116.996094 37.464844 116.804688 38.035156 116.425781 38.417969 C 115.726562 37.71875 115.09375 37.023438 114.394531 36.386719 C 113.253906 35.246094 112.238281 34.167969 111.796875 32.453125 C 110.972656 29.601562 109.765625 26.875 108.75 24.148438 C 107.609375 21.230469 106.339844 18.375 104.5 15.839844 C 103.996094 15.140625 103.550781 14.316406 103.171875 13.554688 C 103.488281 13.175781 103.742188 12.921875 103.929688 12.667969 C 105.199219 10.765625 103.804688 7.402344 101.519531 7.085938 C 100.695312 6.957031 99.933594 7.085938 99.109375 6.769531 C 98.414062 6.453125 97.652344 7.277344 97.96875 7.972656 C 98.351562 8.671875 98.097656 9.242188 97.90625 9.8125 C 97.523438 11.335938 98.160156 12.667969 99.617188 13.238281 C 100.253906 13.492188 100.949219 13.492188 101.648438 13.679688 C 101.964844 13.746094 102.472656 13.933594 102.597656 14.1875 C 103.867188 16.472656 105.328125 18.628906 106.339844 21.039062 C 107.609375 24.082031 108.496094 27.316406 109.511719 30.425781 C 109.574219 30.679688 109.574219 30.933594 109.640625 31.375 C 108.5625 30.617188 107.609375 29.980469 106.722656 29.285156 C 106.59375 29.15625 106.46875 29.03125 106.339844 28.964844 C 106.785156 25.542969 105.199219 24.082031 101.710938 24.84375 C 100.378906 23.894531 98.984375 22.878906 97.523438 21.988281 C 96.699219 21.484375 95.875 20.976562 94.988281 20.65625 C 92.578125 19.832031 90.105469 19.074219 87.695312 18.3125 C 87.1875 18.121094 86.617188 18.058594 86.109375 17.929688 C 86.046875 16.917969 85.980469 16.089844 85.917969 15.203125 C 85.855469 13.554688 84.96875 12.667969 83.316406 12.601562 C 82.621094 12.601562 81.921875 12.730469 81.226562 12.792969 C 81.035156 12.601562 80.84375 12.351562 80.65625 12.160156 C 80.082031 11.652344 79.386719 11.652344 78.878906 12.160156 C 78.433594 12.601562 78.308594 13.492188 78.878906 13.933594 C 79.578125 14.441406 79.640625 15.078125 79.640625 15.839844 C 79.640625 16.980469 79.957031 18.058594 81.097656 18.566406 C 82.304688 19.074219 83.507812 19.515625 84.902344 19.007812 C 85.222656 18.882812 85.601562 18.882812 85.855469 19.007812 C 88.011719 20.277344 90.359375 21.039062 92.769531 21.671875 C 95.179688 22.371094 97.335938 23.574219 99.300781 25.160156 C 100.125 25.796875 100.570312 26.429688 100.507812 27.636719 C 100.378906 30.171875 102.597656 31.503906 104.882812 30.488281 C 105.074219 30.425781 105.261719 30.296875 105.453125 30.234375 C 107.164062 31.1875 108.75 32.390625 110.148438 33.785156 C 111.476562 35.183594 112.875 36.449219 114.207031 37.847656 C 114.777344 38.417969 115.285156 38.988281 115.855469 39.558594 C 116.425781 40.128906 116.488281 40.636719 116.046875 41.269531 C 113.886719 40.890625 111.730469 40.574219 109.640625 40.191406 C 106.53125 39.621094 103.488281 38.796875 100.441406 38.480469 C 97.144531 38.164062 94.164062 37.273438 91.375 35.5625 C 90.929688 35.308594 90.484375 35.117188 90.042969 34.863281 C 90.230469 30.933594 89.46875 30.046875 85.792969 30.046875 C 85.539062 29.792969 85.285156 29.472656 84.96875 29.21875 C 84.398438 28.839844 83.636719 28.964844 83.191406 29.472656 C 82.746094 29.917969 82.558594 30.617188 83 30.996094 C 83.761719 31.695312 83.636719 32.582031 83.824219 33.46875 C 84.332031 36.324219 87.25 37.527344 89.46875 35.753906 C 89.535156 35.691406 89.660156 35.691406 89.914062 35.625 C 91.246094 36.324219 92.640625 37.023438 94.035156 37.78125 C 95.050781 38.351562 96.128906 38.734375 97.335938 38.859375 C 98.921875 39.050781 100.507812 39.304688 102.089844 39.621094 C 105.390625 40.320312 108.75 41.015625 112.050781 41.777344 C 113.0625 41.96875 114.078125 42.285156 115.09375 42.539062 C 115.792969 42.730469 116.296875 43.109375 116.550781 43.871094 C 116.933594 45.078125 117.882812 45.519531 119.152344 45.394531 C 119.535156 45.328125 119.914062 45.265625 120.359375 45.203125 C 121.691406 46.851562 123.023438 48.4375 124.289062 50.085938 C 124.988281 51.039062 125.621094 52.117188 126.191406 53.195312 C 127.269531 55.414062 128.285156 57.699219 129.300781 59.917969 C 129.300781 59.917969 129.300781 59.980469 129.300781 60.042969 C 129.300781 60.042969 129.238281 60.109375 129.109375 60.171875 C 128.539062 59.601562 127.90625 59.03125 127.269531 58.394531 C 125.621094 56.746094 123.71875 55.476562 121.5 54.71875 C 119.722656 54.082031 118.011719 53.449219 116.234375 52.8125 C 113.761719 51.988281 111.289062 51.226562 108.816406 50.402344 C 107.292969 49.898438 105.769531 49.390625 104.375 48.566406 C 104.691406 46.980469 104.183594 45.902344 102.851562 45.265625 C 102.027344 44.824219 101.140625 44.757812 100.1875 44.949219 C 99.808594 45.011719 99.363281 45.011719 98.921875 44.886719 C 98.097656 44.695312 97.523438 44.824219 97.207031 45.394531 C 96.890625 45.964844 97.019531 46.597656 97.589844 47.167969 C 97.84375 47.421875 98.097656 47.613281 98.285156 47.929688 C 98.730469 48.566406 99.046875 49.261719 99.492188 49.960938 C 100.253906 51.164062 101.519531 51.355469 102.664062 50.53125 C 102.917969 50.339844 103.171875 50.085938 103.421875 49.832031 C 103.804688 49.453125 104.121094 49.390625 104.566406 49.644531 C 106.46875 50.785156 108.5625 51.480469 110.652344 52.242188 C 112.621094 52.941406 114.523438 53.765625 116.488281 54.464844 C 119.152344 55.414062 121.753906 56.367188 124.164062 58.015625 C 126.257812 59.472656 128.09375 61.1875 129.871094 62.898438 C 132.15625 65.054688 132.980469 68.097656 134.375 70.890625 C 133.804688 70.636719 133.296875 70.320312 132.851562 69.9375 C 130.125 67.59375 126.953125 66.195312 123.527344 65.117188 C 121.945312 64.609375 120.484375 63.914062 118.960938 63.34375 C 119.027344 61.566406 119.027344 59.980469 117.3125 59.15625 C 115.726562 58.394531 114.585938 59.410156 113.507812 60.296875 C 113.316406 60.296875 113.253906 60.296875 113.191406 60.234375 C 112.558594 59.980469 111.984375 60.042969 111.605469 60.679688 C 111.289062 61.1875 111.476562 61.757812 112.304688 62.265625 C 112.746094 62.519531 112.9375 62.898438 113.128906 63.34375 C 113.253906 63.660156 113.382812 63.976562 113.570312 64.292969 C 114.585938 65.941406 116.488281 66.195312 117.949219 64.929688 C 118.203125 64.738281 118.390625 64.484375 118.644531 64.230469 C 119.152344 64.421875 119.660156 64.675781 120.167969 64.863281 C 120.992188 65.183594 121.816406 65.625 122.703125 65.878906 C 125.683594 66.832031 128.476562 68.035156 130.949219 70 C 132.15625 70.953125 133.488281 71.90625 134.5 73.046875 C 135.898438 74.570312 136.847656 76.40625 137.355469 78.5 C 137.863281 80.65625 138.558594 82.75 139.257812 84.90625 C 139.449219 85.476562 139.640625 86.113281 140.144531 86.554688 C 140.398438 87.570312 140.652344 88.585938 140.84375 89.601562 C 139.957031 88.203125 139.066406 86.9375 138.242188 85.605469 C 136.339844 82.75 133.929688 80.339844 131.332031 78.183594 C 129.746094 76.914062 127.96875 75.898438 126.128906 75.011719 C 123.972656 73.871094 121.878906 72.601562 119.722656 71.585938 C 117.441406 70.574219 115.539062 68.988281 113.699219 67.402344 C 111.414062 65.433594 109.386719 63.214844 107.738281 60.613281 C 107.230469 59.789062 106.59375 59.03125 105.898438 58.332031 C 105.707031 58.078125 105.199219 57.886719 104.882812 57.953125 C 104.628906 58.015625 104.375 58.523438 104.25 58.839844 C 104.121094 59.09375 104.183594 59.410156 104.183594 59.664062 C 104.3125 61.121094 104.3125 62.644531 104.566406 64.105469 C 105.136719 67.273438 105.769531 70.445312 106.46875 73.679688 C 106.785156 75.140625 107.039062 76.597656 107.546875 77.992188 C 108.878906 81.734375 110.972656 84.90625 114.269531 87.191406 C 114.648438 87.445312 114.902344 87.761719 115.285156 87.949219 C 116.109375 88.457031 116.871094 88.964844 117.757812 89.347656 C 121.4375 91.058594 125.367188 91.882812 129.363281 92.515625 C 130.378906 92.707031 131.457031 92.960938 132.472656 93.214844 C 135.898438 94.167969 138.941406 96.003906 142.113281 97.527344 C 143.824219 98.351562 144.902344 99.683594 145.855469 101.269531 C 146.867188 102.980469 148.074219 104.566406 149.152344 106.21875 C 149.34375 106.46875 149.53125 106.597656 149.851562 106.851562 C 149.660156 113.636719 150.484375 121.945312 152.703125 132.15625 C 153.59375 136.214844 154.289062 139.957031 154.859375 143.382812 C 152.957031 144.207031 151.117188 144.84375 149.46875 145.347656 C 140.96875 147.886719 131.011719 155.242188 129.171875 165.328125 C 128.921875 166.851562 128.792969 168.5625 128.984375 170.464844 C 128.667969 169.640625 128.347656 168.753906 128.09375 167.929688 C 127.652344 166.40625 127.082031 165.011719 126.574219 163.488281 C 126.382812 163.042969 126.320312 162.539062 126.445312 162.03125 C 126.828125 160 127.144531 157.972656 127.652344 156.003906 C 127.96875 154.734375 128.601562 153.53125 129.109375 152.324219 C 129.238281 152.007812 129.554688 151.691406 129.871094 151.566406 C 131.011719 150.996094 131.710938 149.980469 131.648438 148.648438 C 131.582031 147.507812 131.078125 146.554688 130.125 145.921875 C 129.425781 145.414062 128.601562 145.347656 127.84375 145.730469 C 127.015625 146.175781 126.574219 146.871094 126.511719 147.824219 C 126.511719 148.648438 126.828125 149.410156 127.398438 149.980469 C 127.84375 150.488281 127.84375 150.929688 127.523438 151.5 C 126.003906 154.164062 125.304688 157.019531 124.734375 160 C 124.671875 160.382812 124.542969 160.761719 124.417969 161.269531 C 124.226562 161.078125 124.101562 161.015625 124.035156 160.886719 C 122.703125 159.492188 121.4375 158.035156 120.105469 156.703125 C 119.660156 156.257812 119.34375 155.816406 119.28125 155.179688 C 119.214844 154.671875 119.152344 154.164062 119.152344 153.59375 C 119.089844 153.023438 119.027344 152.390625 118.960938 151.820312 C 118.835938 150.550781 118.644531 149.28125 118.644531 147.949219 C 118.707031 143.257812 119.214844 138.5625 120.230469 133.996094 C 120.929688 131.078125 121.246094 128.097656 121.054688 125.054688 C 120.929688 123.023438 120.675781 120.996094 120.421875 118.964844 C 120.039062 116.238281 119.851562 113.511719 119.785156 110.71875 C 119.722656 107.296875 120.738281 104.0625 122.195312 100.953125 C 122.386719 100.570312 122.578125 100.191406 122.703125 99.8125 C 122.769531 99.621094 122.578125 99.429688 122.515625 99.175781 C 122.324219 99.242188 122.007812 99.304688 121.878906 99.429688 C 121.625 99.8125 121.371094 100.253906 121.183594 100.699219 C 120.675781 101.839844 120.230469 102.980469 119.722656 104.1875 C 118.835938 106.28125 117.882812 108.375 117.058594 110.53125 C 115.980469 113.449219 115.917969 116.429688 116.804688 119.472656 C 117.503906 121.882812 118.011719 124.417969 118.898438 126.765625 C 119.027344 127.082031 119.089844 127.402344 119.027344 127.71875 C 118.960938 129.621094 119.027344 131.460938 118.390625 133.300781 C 117.882812 134.757812 117.695312 136.214844 117.820312 137.738281 C 117.882812 138.308594 117.882812 138.945312 117.820312 139.515625 C 117.695312 142.113281 117.566406 144.714844 117.441406 147.316406 C 117.375 148.773438 117.441406 150.234375 117.757812 151.691406 C 117.882812 152.324219 118.011719 152.960938 117.949219 153.722656 C 117.820312 153.53125 117.757812 153.339844 117.628906 153.214844 C 116.679688 151.4375 115.792969 149.664062 114.839844 147.949219 C 114.269531 146.871094 113.886719 145.792969 113.761719 144.589844 C 113.445312 142.179688 113.253906 139.769531 112.808594 137.359375 C 112.492188 135.519531 112.429688 133.617188 112.238281 131.777344 C 111.921875 128.480469 111.160156 125.246094 110.273438 122.074219 C 110.148438 121.566406 109.894531 121.121094 109.703125 120.613281 C 109.070312 119.09375 108.433594 117.507812 107.738281 116.046875 C 107.292969 115.097656 106.785156 114.207031 106.214844 113.320312 C 105.707031 112.496094 105.136719 111.734375 104.628906 110.972656 C 104.5 110.785156 104.375 110.53125 104.183594 110.402344 C 104.058594 110.339844 103.867188 110.277344 103.742188 110.277344 C 103.613281 110.339844 103.550781 110.53125 103.488281 110.65625 C 103.421875 110.785156 103.488281 110.910156 103.550781 111.039062 C 104.4375 114.207031 104.566406 117.507812 104.753906 120.742188 C 104.945312 123.976562 106.339844 126.574219 108.308594 128.921875 C 109.640625 130.507812 110.464844 132.222656 111.035156 134.125 C 111.542969 135.898438 111.859375 137.800781 112.050781 139.640625 C 112.304688 142.113281 112.808594 144.589844 113.382812 147 C 113.570312 147.949219 114.207031 148.773438 114.648438 149.597656 C 115.15625 150.550781 115.664062 151.4375 116.046875 152.390625 C 115.21875 151.753906 114.523438 150.996094 113.953125 150.167969 C 112.808594 148.394531 111.414062 146.871094 109.765625 145.539062 C 109.195312 145.097656 108.816406 144.398438 108.371094 143.890625 C 107.355469 142.75 106.339844 141.609375 105.328125 140.464844 C 105.136719 140.277344 104.945312 140.085938 104.753906 139.832031 C 103.675781 137.867188 102.410156 135.960938 101.519531 133.871094 C 100.441406 131.394531 99.554688 128.796875 98.667969 126.257812 C 98.476562 125.75 98.414062 125.179688 98.285156 124.609375 C 98.160156 124.039062 98.160156 123.59375 98.601562 123.085938 C 99.109375 122.582031 99.109375 121.882812 98.855469 121.25 C 98.351562 120.042969 97.460938 119.28125 96.195312 118.902344 C 95.8125 118.773438 95.367188 118.839844 94.988281 118.902344 C 93.71875 119.21875 93.148438 120.425781 93.847656 121.566406 C 94.417969 122.515625 95.179688 123.339844 96.320312 123.722656 C 96.765625 123.847656 96.890625 124.164062 97.019531 124.546875 C 97.460938 126.828125 98.414062 128.984375 99.300781 131.144531 C 100.253906 133.617188 101.265625 136.089844 102.726562 138.308594 C 102.789062 138.371094 102.726562 138.4375 102.726562 138.5 C 102.664062 138.5 102.597656 138.625 102.597656 138.5625 C 100.695312 137.546875 98.730469 136.789062 97.019531 135.328125 C 95.304688 133.871094 93.402344 132.726562 91.5625 131.460938 C 90.359375 130.636719 89.152344 129.875 88.203125 128.796875 C 87.886719 128.351562 87.695312 127.972656 87.632812 127.402344 C 87.566406 125.179688 87.886719 123.023438 88.265625 120.867188 C 89.027344 116.683594 86.617188 112.496094 83.128906 110.59375 C 79.449219 108.5625 75.707031 106.535156 71.773438 105.011719 C 70.507812 104.503906 69.175781 104.25 67.90625 103.871094 C 67.652344 103.808594 67.398438 103.808594 67.207031 103.808594 C 66.511719 103.808594 66.257812 104.1875 66.574219 104.820312 C 67.144531 105.773438 67.652344 106.722656 68.351562 107.484375 C 70.378906 109.640625 72.410156 111.671875 74.503906 113.699219 C 75.582031 114.714844 76.847656 115.605469 78.054688 116.492188 C 79.324219 117.378906 80.335938 118.394531 81.160156 119.726562 C 81.921875 120.929688 82.621094 122.136719 83.445312 123.46875 C 83.128906 123.40625 82.9375 123.339844 82.746094 123.339844 C 82.683594 123.847656 82.9375 124.101562 83.253906 124.355469 C 84.078125 125.117188 84.714844 126.003906 85.347656 126.957031 C 86.363281 128.605469 87.695312 130 89.28125 131.144531 C 89.851562 131.523438 90.359375 132.03125 90.867188 132.410156 C 90.800781 132.472656 90.738281 132.601562 90.675781 132.664062 C 89.535156 132.222656 88.390625 131.777344 87.3125 131.207031 C 86.171875 130.636719 85.03125 130.0625 83.890625 129.367188 C 82.875 128.734375 81.859375 128.035156 80.910156 127.273438 C 79.195312 125.75 77.230469 124.484375 75.199219 123.40625 C 74.628906 123.085938 74.121094 122.769531 73.679688 122.328125 C 72.09375 120.550781 70.570312 118.773438 69.046875 116.9375 C 68.730469 116.554688 68.539062 116.046875 68.222656 115.539062 C 68.414062 115.351562 68.605469 115.160156 68.792969 114.96875 C 69.113281 114.589844 69.175781 114.144531 69.113281 113.699219 C 68.859375 112.304688 67.082031 110.785156 65.625 110.847656 C 64.925781 110.847656 64.226562 111.101562 63.785156 111.671875 C 63.148438 112.496094 63.148438 113.636719 63.972656 114.335938 C 64.480469 114.714844 65.117188 115.03125 65.6875 115.222656 C 66.382812 115.414062 66.953125 115.667969 67.335938 116.238281 C 68.792969 118.457031 70.886719 120.171875 72.601562 122.136719 C 72.726562 122.328125 72.917969 122.515625 72.980469 122.835938 C 72.601562 122.769531 72.21875 122.707031 71.839844 122.515625 C 69.617188 121.628906 67.398438 120.613281 65.179688 119.789062 C 63.148438 119.027344 61.054688 118.332031 58.964844 117.632812 C 58.203125 117.378906 57.378906 117.378906 56.617188 117.378906 C 54.652344 117.378906 52.746094 117.507812 50.78125 117.632812 C 46.847656 117.886719 43.109375 118.964844 39.554688 120.742188 C 37.460938 121.757812 35.433594 122.769531 33.214844 123.40625 C 32.578125 123.59375 31.945312 123.847656 31.375 124.164062 C 31.183594 124.292969 30.929688 124.671875 30.992188 124.925781 C 31.058594 125.179688 31.375 125.371094 31.628906 125.496094 C 31.882812 125.625 32.261719 125.625 32.578125 125.496094 C 35.117188 124.863281 37.589844 125.246094 40.0625 125.75 C 43.109375 126.386719 46.152344 126.324219 49.195312 126.003906 C 51.226562 125.816406 53.066406 125.179688 54.652344 123.847656 C 56.109375 122.582031 57.886719 122.074219 59.660156 121.566406 C 59.976562 121.503906 60.359375 121.375 60.675781 121.25 C 61.5625 120.867188 62.515625 120.804688 63.464844 121.058594 C 65.179688 121.503906 66.890625 122.007812 68.605469 122.515625 C 69.429688 122.769531 70.191406 122.960938 71.015625 123.214844 C 74.882812 124.484375 78.371094 126.449219 81.667969 128.859375 C 83.761719 130.382812 85.855469 131.714844 88.203125 132.792969 C 85.917969 132.15625 83.636719 131.648438 81.414062 130.953125 C 79.765625 130.445312 78.246094 129.683594 76.660156 129.050781 C 74.945312 128.351562 73.171875 127.78125 71.332031 127.652344 C 69.9375 127.589844 68.539062 127.71875 67.207031 128.289062 C 64.417969 129.429688 61.691406 130.570312 58.898438 131.714844 C 57.316406 132.347656 55.917969 133.363281 54.652344 134.503906 C 53.445312 135.582031 52.050781 136.46875 50.78125 137.484375 C 50.71875 137.546875 50.65625 137.546875 50.589844 137.613281 C 50.464844 137.800781 50.210938 138.121094 50.273438 138.246094 C 50.339844 138.4375 50.65625 138.691406 50.84375 138.691406 C 52.113281 138.816406 53.382812 139.007812 54.585938 138.878906 C 56.238281 138.753906 57.820312 138.691406 59.472656 138.625 C 61.5 138.5625 63.59375 138.4375 65.625 138.054688 C 67.144531 137.738281 68.667969 137.105469 70.125 136.40625 C 71.902344 135.582031 73.804688 135.136719 75.707031 134.632812 C 76.785156 134.378906 77.800781 134.058594 78.878906 133.996094 C 80.71875 133.804688 82.558594 133.742188 84.398438 133.996094 C 85.285156 134.125 86.109375 134.25 86.996094 134.25 C 88.390625 134.25 89.722656 134.441406 91.054688 135.074219 C 93.65625 136.214844 96.257812 137.230469 98.855469 138.308594 C 99.492188 138.5625 100.125 138.753906 100.761719 138.945312 C 101.964844 139.261719 102.917969 139.957031 104.058594 140.910156 C 103.613281 140.78125 103.359375 140.71875 103.171875 140.59375 C 102.917969 140.53125 102.664062 140.402344 102.410156 140.277344 C 101.140625 139.769531 99.871094 139.578125 98.539062 139.703125 C 97.523438 139.769531 96.511719 139.894531 95.496094 139.957031 C 94.734375 140.023438 94.101562 139.894531 93.464844 139.386719 C 92.894531 139.007812 92.261719 138.691406 91.625 138.5 C 90.800781 138.308594 90.105469 138.625 89.597656 139.324219 C 89.089844 140.023438 89.214844 140.71875 89.597656 141.417969 C 90.421875 142.875 91.945312 143.382812 93.277344 142.558594 C 93.785156 142.242188 94.101562 141.609375 94.609375 140.972656 C 96.765625 140.847656 99.109375 140.65625 101.457031 141.035156 C 102.28125 141.164062 102.980469 141.609375 103.742188 141.988281 C 104.820312 142.558594 105.960938 143.128906 106.976562 143.828125 C 107.738281 144.335938 108.496094 144.96875 109.132812 145.601562 C 110.84375 147.441406 112.558594 149.410156 114.207031 151.3125 C 114.269531 151.375 114.332031 151.4375 114.523438 151.628906 C 112.875 151.3125 111.480469 150.996094 110.148438 150.296875 C 108.371094 149.410156 106.46875 149.15625 104.5 148.710938 C 100.824219 147.886719 97.144531 148.078125 93.464844 148.519531 C 92.515625 148.648438 91.5625 148.710938 90.675781 148.710938 C 88.644531 148.773438 86.679688 149.15625 84.777344 149.980469 C 84.398438 150.167969 83.890625 150.234375 83.507812 150.421875 C 83.191406 150.550781 82.8125 150.742188 83 151.183594 C 83.128906 151.566406 83.445312 151.628906 83.761719 151.5 C 87.1875 150.550781 90.484375 151.628906 93.71875 152.453125 C 95.621094 152.898438 97.460938 153.59375 99.363281 154.039062 C 100.632812 154.355469 101.902344 154.546875 103.171875 154.671875 C 104.566406 154.800781 105.832031 154.609375 107.164062 154.101562 C 109.132812 153.339844 111.160156 153.152344 113.191406 153.152344 C 113.699219 153.152344 114.332031 153.339844 114.777344 153.59375 C 117.820312 155.371094 120.292969 157.71875 122.578125 160.316406 C 123.148438 161.015625 123.59375 161.777344 124.101562 162.539062 C 124.035156 162.601562 124.035156 162.664062 123.972656 162.726562 C 122.640625 162.472656 121.371094 162.21875 120.039062 161.902344 C 119.089844 161.648438 118.074219 161.394531 117.125 161.078125 C 116.742188 160.953125 116.425781 160.761719 116.171875 160.507812 C 115.601562 160 114.96875 159.683594 114.207031 159.554688 C 113 159.367188 112.175781 160.128906 112.238281 161.332031 C 112.304688 162.539062 112.808594 163.550781 113.890625 164.1875 C 114.96875 164.820312 115.726562 164.695312 116.488281 163.679688 C 116.550781 163.617188 116.617188 163.550781 116.804688 163.363281 C 117.378906 163.488281 118.011719 163.679688 118.644531 163.871094 C 119.785156 164.121094 120.867188 164.441406 122.007812 164.628906 C 123.210938 164.882812 124.289062 165.328125 125.179688 166.152344 C 125.496094 166.46875 126.003906 166.722656 126.320312 167.039062 C 126.574219 167.292969 126.828125 167.613281 126.953125 167.929688 C 127.714844 169.703125 128.855469 171.605469 129.746094 173.445312 C 130.695312 176.933594 132.726562 180.804688 136.402344 184.925781 C 132.980469 186.703125 129.238281 188.730469 125.367188 191.332031 C 121.878906 193.679688 120.167969 196.152344 120.039062 198.816406 C 119.785156 203.953125 125.75 208.835938 132.664062 214.480469 C 142.621094 222.601562 153.910156 231.859375 149.851562 244.355469 C 147.3125 252.28125 143.0625 257.355469 137.230469 259.511719 C 136.65625 258.117188 136.023438 256.722656 135.324219 255.328125 C 126.382812 237.058594 117.695312 234.96875 113.316406 235.285156 C 108.308594 235.664062 104.945312 239.597656 103.804688 243.277344 C 102.664062 247.144531 103.742188 250.949219 106.660156 253.296875 C 112.492188 257.863281 125.179688 264.648438 136.277344 261.542969 C 139.449219 270.039062 139.449219 276.828125 136.214844 281.902344 C 129.933594 291.730469 113.445312 291.542969 113.253906 291.542969 L 113.253906 293.128906 C 113.316406 293.128906 113.382812 293.128906 113.507812 293.128906 C 115.855469 293.128906 131.203125 292.746094 137.546875 282.789062 C 141.035156 277.335938 141.097656 270.039062 137.800781 261.097656 C 144.078125 258.75 148.644531 253.359375 151.371094 244.925781 C 155.75 231.351562 143.507812 221.394531 133.675781 213.339844 C 127.398438 208.203125 121.4375 203.320312 121.625 199.007812 C 121.691406 196.851562 123.210938 194.820312 126.257812 192.789062 C 130.1875 190.125 134.058594 188.097656 137.546875 186.257812 C 139.320312 188.097656 141.476562 190.0625 144.015625 192.03125 C 162.660156 206.363281 179.34375 217.90625 195.769531 218.730469 C 190.695312 222.726562 184.667969 234.652344 184.667969 269.152344 L 186.253906 269.152344 C 186.253906 233.699219 192.789062 223.171875 196.65625 220.0625 C 197.480469 219.367188 198.304688 218.984375 198.941406 218.792969 C 207.058594 218.539062 215.175781 215.496094 223.484375 208.773438 C 239.277344 196.023438 240.925781 190.699219 244.226562 180.105469 C 246.316406 173.382812 249.171875 164.25 257.226562 149.410156 C 269.59375 126.574219 265.914062 115.351562 262.679688 105.519531 C 260.90625 102.664062 260.015625 100.066406 259.511719 97.273438 Z M 195.070312 140.277344 C 194.882812 140.085938 195.007812 139.578125 195.136719 139.261719 C 195.515625 138.308594 195.894531 137.800781 196.464844 137.613281 C 196.59375 137.546875 196.785156 137.546875 196.972656 137.546875 C 198.179688 137.546875 199.953125 138.625 201.792969 139.703125 C 201.984375 139.832031 202.113281 139.894531 202.300781 140.023438 C 198.875 140.65625 195.769531 141.101562 195.070312 140.277344 Z M 210.230469 162.15625 C 209.53125 162.855469 207.945312 163.042969 205.472656 162.726562 C 198.625 161.777344 193.230469 162.347656 190.1875 162.917969 C 192.914062 160.445312 198.242188 156.449219 204.269531 156.449219 C 206.296875 156.449219 208.453125 156.890625 210.609375 157.972656 C 210.925781 159.9375 210.992188 161.460938 210.230469 162.15625 Z M 195.324219 27.0625 C 195.453125 27.0625 195.386719 27.0625 195.324219 27.0625 Z M 204.585938 42.414062 C 204.648438 42.414062 204.710938 42.414062 204.773438 42.476562 C 204.648438 43.617188 204.523438 44.757812 204.332031 45.902344 C 204.015625 47.738281 203.507812 49.578125 203.253906 51.480469 C 202.9375 53.511719 202.238281 55.351562 201.285156 57.0625 C 201.035156 57.507812 200.78125 57.886719 200.460938 58.269531 C 198.242188 60.804688 195.386719 62.328125 192.089844 63.089844 C 190.632812 63.40625 189.109375 63.660156 187.652344 63.976562 C 187.078125 64.101562 186.574219 64.230469 186 64.355469 C 183.402344 65.117188 181.054688 66.386719 178.707031 67.589844 C 178.453125 67.71875 178.265625 67.84375 178.011719 67.972656 C 179.023438 66.386719 180.355469 65.054688 181.878906 63.976562 C 182.511719 63.53125 183.148438 63.152344 183.71875 62.707031 C 185.683594 61.25 187.714844 59.980469 189.933594 58.964844 C 192.28125 57.953125 194.753906 57.316406 197.292969 56.808594 C 197.609375 56.746094 198.050781 56.746094 198.371094 56.300781 C 196.023438 56.367188 193.992188 57.316406 191.773438 57.570312 C 192.726562 56.808594 193.738281 56.113281 194.691406 55.414062 C 194.753906 55.414062 194.816406 55.414062 194.816406 55.351562 C 195.261719 55.097656 195.707031 54.84375 196.085938 54.527344 C 196.53125 54.210938 196.910156 53.828125 197.292969 53.449219 C 199.066406 51.863281 200.84375 50.277344 202.046875 48.183594 C 202.808594 46.851562 203.441406 45.519531 203.949219 44.0625 C 204.203125 43.492188 204.394531 42.917969 204.585938 42.414062 Z M 180.800781 62.519531 C 182.195312 60.042969 183.910156 57.886719 186.066406 56.046875 C 186.953125 55.289062 187.90625 54.589844 188.855469 54.019531 C 190.1875 53.257812 191.648438 52.6875 192.976562 51.925781 C 194.628906 51.039062 196.464844 50.339844 197.988281 49.136719 C 200.082031 47.488281 201.984375 45.710938 203.507812 43.492188 C 203.695312 43.238281 203.886719 42.984375 204.015625 42.730469 C 203.125 46.535156 200.144531 51.039062 197.796875 52.242188 C 198.242188 51.609375 198.6875 51.039062 199.066406 50.46875 C 200.019531 49.007812 200.019531 49.007812 199.953125 48.5 C 199.890625 48.566406 199.765625 48.566406 199.765625 48.628906 C 198.875 50.402344 197.542969 51.863281 196.339844 53.449219 C 196.085938 53.828125 195.707031 54.144531 195.324219 54.398438 C 193.804688 55.476562 192.21875 56.554688 190.632812 57.570312 C 189.617188 58.269531 188.539062 58.839844 187.460938 59.472656 C 186.890625 59.789062 186.253906 60.109375 185.429688 60.550781 C 186.636719 58.710938 188.03125 57.191406 188.855469 55.289062 C 188.730469 55.414062 188.664062 55.542969 188.539062 55.667969 C 187.398438 57.191406 186.320312 58.710938 185.242188 60.234375 C 184.734375 60.996094 184.097656 61.566406 183.339844 62.074219 C 182.007812 63.023438 180.546875 63.785156 179.40625 64.929688 C 179.40625 64.929688 179.34375 64.929688 179.214844 64.929688 C 179.785156 64.167969 180.292969 63.34375 180.800781 62.519531 Z M 168.8125 36.132812 C 169.449219 37.402344 170.273438 38.542969 171.289062 39.496094 C 173.125 41.207031 174.964844 42.917969 176.804688 44.632812 C 177.820312 45.582031 178.707031 46.726562 179.214844 48.058594 C 179.597656 48.945312 179.851562 49.832031 180.167969 50.722656 C 180.546875 51.863281 180.738281 53.066406 180.738281 54.335938 C 180.675781 56.9375 180.421875 59.535156 179.660156 62.074219 C 179.277344 63.40625 178.644531 64.675781 178.011719 65.941406 C 178.136719 64.167969 178.265625 62.453125 178.328125 60.679688 C 178.328125 59.726562 178.199219 58.777344 178.136719 57.886719 C 178.136719 57.632812 178.074219 57.316406 178.074219 57.0625 C 178.199219 55.984375 178.453125 54.90625 178.582031 53.890625 C 178.707031 52.941406 178.835938 52.054688 178.960938 51.101562 C 178.960938 50.976562 178.898438 50.785156 178.898438 50.65625 C 178.835938 50.65625 178.769531 50.65625 178.707031 50.65625 C 178.265625 52.433594 178.136719 54.335938 177.566406 56.175781 C 177.3125 55.476562 176.996094 54.78125 176.867188 54.082031 C 176.363281 52.117188 175.472656 50.339844 174.203125 48.753906 C 174.015625 48.5 173.824219 48.121094 173.761719 47.738281 C 173.632812 46.980469 173.570312 46.21875 173.570312 45.519531 C 173.570312 44.570312 173.570312 43.554688 173.316406 42.601562 C 172.9375 44.125 173.253906 45.648438 173.0625 47.167969 C 172.683594 46.597656 172.367188 45.964844 172.113281 45.328125 C 171.605469 44.125 171.160156 42.855469 170.273438 41.839844 C 169.703125 41.144531 169.449219 40.382812 169.195312 39.496094 C 169.066406 38.988281 168.941406 38.480469 168.6875 38.035156 C 168.304688 37.273438 168.242188 36.449219 168.179688 35.5625 C 168.558594 35.691406 168.6875 35.878906 168.8125 36.132812 Z M 175.472656 52.117188 C 175.410156 52.117188 175.410156 52.179688 175.347656 52.179688 C 175.28125 51.988281 175.21875 51.800781 175.15625 51.609375 C 175.21875 51.734375 175.347656 51.925781 175.472656 52.117188 Z M 175.15625 58.710938 C 174.710938 56.9375 173.824219 55.351562 172.808594 53.765625 C 171.859375 52.242188 170.96875 50.65625 170.144531 49.070312 C 169.511719 47.867188 169.003906 46.597656 168.433594 45.394531 C 167.863281 44.25 167.480469 43.109375 167.355469 41.839844 C 167.226562 40.574219 167.164062 39.242188 167.164062 37.972656 C 167.164062 37.085938 167.226562 36.132812 167.292969 35.246094 C 167.480469 35.371094 167.546875 35.5 167.546875 35.625 C 167.734375 36.769531 168.054688 37.847656 168.625 38.925781 C 168.75 39.113281 168.75 39.367188 168.8125 39.621094 C 169.066406 40.382812 169.320312 41.144531 169.890625 41.777344 C 170.335938 42.347656 170.652344 42.917969 170.84375 43.617188 C 171.289062 45.394531 171.984375 47.105469 173.191406 48.566406 C 173.507812 48.945312 173.824219 49.324219 174.078125 49.707031 C 174.457031 50.277344 174.710938 50.847656 175.03125 51.480469 C 174.078125 50.46875 173.125 49.390625 172.238281 48.375 C 171.289062 47.296875 170.398438 46.21875 169.449219 45.203125 C 169.382812 45.457031 169.449219 45.710938 169.574219 45.902344 C 170.210938 46.851562 170.84375 47.804688 171.667969 48.566406 C 172.113281 48.945312 172.554688 49.390625 173 49.832031 C 174.648438 51.546875 175.664062 53.636719 176.613281 55.730469 C 177.121094 56.875 177.503906 58.015625 177.503906 59.21875 C 177.503906 61.121094 177.375 63.023438 177.25 64.863281 C 177.121094 66.007812 176.613281 67.085938 176.109375 68.164062 C 176.109375 67.910156 176.109375 67.65625 176.171875 67.402344 C 176.425781 65.5 176.488281 63.660156 175.980469 61.757812 C 175.789062 60.742188 175.410156 59.726562 175.15625 58.710938 Z M 118.136719 37.65625 C 118.074219 37.65625 118.011719 37.65625 118.136719 37.65625 Z M 106.277344 61.441406 C 108.433594 64.675781 111.226562 67.273438 114.269531 69.621094 C 116.488281 71.332031 119.089844 72.285156 121.5625 73.617188 C 123.527344 74.695312 125.621094 75.519531 127.523438 76.660156 C 128.984375 77.484375 130.316406 78.5 131.585938 79.578125 C 134.691406 82.242188 137.230469 85.414062 139.257812 88.964844 C 139.957031 90.171875 140.652344 91.375 141.414062 92.644531 C 141.289062 92.644531 141.160156 92.644531 141.160156 92.644531 C 139.511719 90.933594 137.417969 89.855469 135.515625 88.457031 C 134.4375 87.695312 133.550781 86.808594 132.789062 85.730469 C 131.203125 83.511719 129.554688 81.292969 127.96875 79.070312 C 127.84375 78.882812 127.714844 78.691406 127.523438 78.5 C 128.730469 81.292969 130.695312 83.449219 132.472656 86.113281 C 131.332031 85.476562 130.441406 85.097656 129.554688 84.589844 C 128.03125 83.703125 126.445312 82.8125 124.925781 81.796875 C 122.640625 80.277344 120.359375 78.753906 118.136719 77.167969 C 117.628906 76.789062 117.125 76.28125 116.679688 75.773438 C 114.902344 73.554688 113.0625 71.398438 111.730469 68.796875 C 111.667969 68.734375 111.542969 68.671875 111.480469 68.605469 C 111.414062 69.367188 111.414062 69.429688 112.746094 71.460938 C 113.316406 72.347656 113.953125 73.171875 114.585938 74.0625 C 111.160156 72.347656 106.847656 65.753906 105.582031 60.234375 C 105.769531 60.742188 106.023438 61.058594 106.277344 61.441406 Z M 142.300781 96.324219 C 138.878906 94.546875 135.453125 92.644531 131.710938 91.566406 C 130.949219 91.3125 130.125 91.121094 129.300781 90.996094 C 127.144531 90.550781 124.988281 90.234375 122.832031 89.726562 C 118.074219 88.648438 114.015625 86.363281 110.71875 82.75 C 110.273438 82.242188 109.894531 81.609375 109.511719 81.039062 C 108.117188 78.5 107.039062 75.835938 106.660156 72.917969 C 106.277344 70.191406 105.582031 67.527344 105.074219 64.863281 C 104.753906 63.214844 104.628906 61.566406 104.375 59.917969 C 104.4375 59.917969 104.566406 59.855469 104.628906 59.855469 C 104.882812 60.613281 105.199219 61.375 105.453125 62.136719 C 106.152344 64.230469 107.101562 66.195312 108.179688 68.097656 C 109.957031 71.144531 112.558594 73.363281 115.09375 75.710938 C 115.664062 76.21875 116.234375 76.789062 116.871094 77.230469 C 117.441406 77.675781 118.074219 78.058594 118.710938 78.4375 C 118.773438 78.5 118.835938 78.5 118.898438 78.5 C 120.292969 79.515625 121.753906 80.53125 123.148438 81.609375 C 119.976562 81.292969 117.058594 79.894531 113.636719 79.769531 C 114.140625 80.339844 114.714844 80.339844 115.222656 80.46875 C 118.835938 81.226562 122.386719 82.179688 125.875 83.636719 C 129.175781 85.035156 132.089844 86.9375 134.882812 89.027344 C 135.769531 89.664062 136.65625 90.296875 137.609375 90.933594 C 139.828125 92.515625 141.667969 94.421875 143.191406 96.765625 C 142.9375 96.640625 142.621094 96.511719 142.300781 96.324219 Z M 142.113281 71.714844 C 142.050781 71.714844 141.921875 71.714844 141.859375 71.714844 C 141.796875 71.96875 141.730469 72.160156 141.730469 72.410156 C 141.921875 73.742188 142.113281 75.140625 142.300781 76.472656 C 142.554688 77.992188 142.808594 79.578125 143.0625 81.101562 C 143.128906 81.480469 143 81.863281 143 82.242188 C 142.875 83.574219 142.683594 84.96875 142.746094 86.300781 C 142.808594 88.839844 143 91.375 143.191406 93.914062 C 142.300781 92.074219 141.414062 90.296875 140.84375 88.332031 C 139.765625 84.652344 139.386719 80.910156 139.320312 77.105469 C 139.257812 75.328125 139.574219 73.617188 140.144531 71.90625 C 140.589844 70.636719 140.972656 69.304688 141.542969 68.035156 C 142.300781 66.132812 143.570312 64.484375 145.03125 63.089844 C 147.695312 60.613281 150.359375 58.140625 153.019531 55.667969 C 154.542969 54.273438 155.75 52.625 156.636719 50.785156 C 156.828125 50.402344 157.015625 50.085938 157.335938 49.769531 C 157.269531 50.976562 157.144531 52.179688 156.636719 53.320312 C 156.320312 54.019531 156.128906 54.714844 155.9375 55.414062 C 155.621094 56.621094 155.242188 57.824219 154.417969 58.777344 C 153.210938 60.296875 152.515625 62.074219 151.816406 63.851562 C 151.4375 64.800781 150.992188 65.6875 150.421875 66.511719 C 150.167969 64.292969 150.546875 62.074219 150.039062 59.855469 C 149.722656 61.25 149.722656 62.644531 149.660156 64.039062 C 149.660156 65.117188 149.53125 66.195312 149.40625 67.273438 C 149.34375 67.78125 149.089844 68.351562 148.773438 68.734375 C 146.933594 71.015625 145.664062 73.617188 144.902344 76.472656 C 144.648438 77.484375 144.207031 78.5 143.824219 79.515625 C 142.9375 77.042969 142.746094 74.316406 142.113281 71.714844 Z M 147.441406 73.171875 C 147.3125 73.425781 147.25 73.742188 147.121094 73.996094 C 147.058594 73.933594 146.996094 73.933594 146.933594 73.871094 C 147.121094 73.679688 147.25 73.425781 147.441406 73.171875 Z M 145.855469 96.132812 C 145.917969 96.449219 145.980469 96.832031 145.917969 97.210938 C 145.21875 95.6875 144.394531 94.167969 144.269531 92.453125 C 144.015625 89.726562 143.886719 87 143.886719 84.273438 C 143.886719 82.496094 144.460938 80.785156 145.15625 79.199219 C 146.488281 76.089844 148.011719 73.109375 150.359375 70.636719 C 150.992188 70 151.625 69.367188 152.324219 68.796875 C 153.59375 67.71875 154.480469 66.324219 155.367188 64.929688 C 155.558594 64.675781 155.621094 64.292969 155.558594 63.914062 C 154.226562 65.433594 152.894531 67.019531 151.5625 68.542969 C 150.230469 70.066406 148.835938 71.585938 147.503906 73.046875 C 147.949219 72.222656 148.390625 71.332031 148.898438 70.507812 C 149.28125 69.9375 149.722656 69.367188 150.167969 68.796875 C 151.878906 66.703125 152.894531 64.230469 153.527344 61.628906 C 153.78125 60.613281 154.226562 59.726562 154.859375 58.902344 C 155.621094 57.953125 156.066406 56.875 156.382812 55.792969 C 156.507812 55.476562 156.507812 55.097656 156.699219 54.78125 C 157.460938 53.257812 157.96875 51.671875 158.285156 50.023438 C 158.347656 49.832031 158.414062 49.644531 158.667969 49.453125 C 158.730469 50.785156 158.855469 52.054688 158.855469 53.386719 C 158.855469 55.289062 158.730469 57.125 158.601562 59.03125 C 158.476562 60.867188 157.90625 62.519531 157.082031 64.167969 C 156.257812 65.941406 155.496094 67.71875 154.605469 69.496094 C 153.402344 71.777344 152.132812 74.125 150.738281 76.34375 C 149.28125 78.628906 148.011719 80.910156 147.375 83.511719 C 146.996094 85.035156 146.488281 86.492188 146.042969 88.015625 C 145.347656 90.679688 145.472656 93.40625 145.855469 96.132812 Z M 117.820312 121.25 C 117.628906 120.425781 117.503906 119.535156 117.1875 118.710938 C 115.917969 115.160156 116.617188 111.796875 118.074219 108.308594 C 118.136719 108.5 118.203125 108.628906 118.203125 108.691406 C 118.011719 112.75 118.457031 116.746094 119.214844 120.742188 C 119.34375 121.4375 119.34375 122.199219 119.40625 122.960938 C 118.710938 121.25 118.457031 119.410156 117.566406 117.761719 C 117.695312 118.839844 117.949219 119.851562 118.203125 120.867188 C 118.457031 121.882812 118.773438 122.898438 118.773438 123.914062 C 118.265625 123.152344 118.011719 122.199219 117.820312 121.25 Z M 110.652344 131.140625 C 110.082031 130.253906 109.640625 129.367188 109.003906 128.667969 C 107.992188 127.589844 107.230469 126.386719 106.40625 125.117188 C 105.582031 123.847656 105.136719 122.453125 105.007812 120.929688 C 104.753906 118.265625 104.503906 115.667969 104.183594 113.066406 C 104.183594 112.941406 104.25 112.8125 104.25 112.621094 C 105.261719 113.765625 105.898438 115.03125 106.40625 116.300781 C 106.914062 117.507812 107.417969 118.710938 107.992188 119.917969 C 108.308594 120.675781 108.6875 121.4375 108.941406 122.261719 C 109.386719 123.59375 109.574219 124.992188 109.828125 126.386719 C 109.765625 126.386719 109.703125 126.449219 109.640625 126.449219 C 109.070312 125.117188 108.496094 123.785156 107.925781 122.515625 C 107.863281 122.515625 107.800781 122.582031 107.738281 122.582031 C 107.863281 123.023438 107.925781 123.40625 108.117188 123.847656 C 108.75 125.308594 109.386719 126.765625 110.082031 128.226562 C 110.402344 129.113281 110.71875 130.0625 110.652344 131.140625 Z M 86.488281 120.234375 C 86.300781 121.503906 86.109375 122.769531 85.917969 124.292969 C 85.347656 122.832031 84.839844 121.566406 84.398438 120.296875 C 84.207031 119.726562 84.078125 119.09375 83.953125 118.457031 C 83.636719 117.125 83.191406 115.921875 82.304688 114.90625 C 82.175781 114.777344 81.988281 114.652344 81.667969 114.460938 C 81.734375 114.714844 81.734375 114.84375 81.734375 114.90625 C 82.746094 118.203125 83.824219 121.4375 84.839844 124.738281 C 84.902344 124.992188 84.96875 125.179688 85.03125 125.433594 C 84.96875 125.496094 84.902344 125.496094 84.902344 125.5625 C 84.777344 125.308594 84.585938 125.054688 84.460938 124.738281 C 83.382812 122.832031 82.367188 120.996094 81.289062 119.09375 C 80.402344 117.570312 79.195312 116.363281 77.738281 115.351562 C 76.34375 114.398438 75.011719 113.320312 73.742188 112.179688 C 71.839844 110.402344 70.0625 108.5625 68.285156 106.722656 C 67.84375 106.28125 67.527344 105.710938 67.144531 105.203125 C 67.019531 105.011719 67.019531 104.820312 66.828125 104.378906 C 67.90625 104.695312 68.859375 104.886719 69.683594 105.203125 C 71.269531 105.835938 72.855469 106.46875 74.375 107.230469 C 77.039062 108.5625 79.703125 109.832031 82.175781 111.417969 C 85.476562 113.382812 86.996094 116.363281 86.488281 120.234375 Z M 57.378906 120.234375 C 57.0625 120.296875 56.679688 120.296875 56.363281 120.359375 C 54.652344 120.425781 52.875 120.425781 51.164062 120.550781 C 50.210938 120.613281 49.324219 120.867188 48.433594 121.121094 C 47.992188 121.25 47.675781 121.566406 47.292969 121.820312 C 47.992188 121.691406 48.625 121.3125 49.261719 121.183594 C 51.417969 120.675781 53.636719 120.996094 55.917969 120.804688 C 54.585938 121.691406 53.507812 122.582031 52.242188 123.277344 C 51.417969 123.722656 50.527344 124.230469 49.640625 124.355469 C 47.484375 124.671875 45.265625 124.925781 43.109375 124.800781 C 40.570312 124.671875 38.035156 124.101562 35.75 123.785156 C 36.957031 123.085938 38.289062 122.261719 39.683594 121.566406 C 43.109375 119.851562 46.660156 118.839844 50.464844 118.519531 C 52.175781 118.394531 53.890625 118.332031 55.601562 118.265625 C 57.695312 118.140625 59.535156 118.773438 61.4375 119.472656 C 59.980469 119.726562 58.648438 119.980469 57.378906 120.234375 Z M 82.429688 132.855469 C 81.414062 132.726562 80.335938 132.726562 79.324219 132.855469 C 78.6875 132.917969 77.992188 132.792969 77.355469 132.664062 C 76.46875 132.539062 75.582031 132.15625 74.691406 132.09375 C 71.710938 131.839844 68.730469 132.21875 65.8125 133.046875 C 65.6875 133.109375 65.625 133.171875 65.496094 133.234375 C 65.875 133.171875 66.257812 133.171875 66.574219 133.109375 C 69.046875 132.539062 71.585938 132.347656 74.121094 132.472656 C 75.074219 132.539062 75.960938 132.726562 76.785156 133.171875 C 76.34375 133.363281 75.960938 133.425781 75.515625 133.488281 C 73.296875 133.933594 71.078125 134.378906 69.046875 135.390625 C 67.90625 135.960938 66.703125 136.40625 65.433594 136.789062 C 64.796875 137.039062 64.101562 137.105469 63.402344 137.167969 C 60.992188 137.359375 58.648438 137.738281 56.238281 137.546875 C 55.539062 137.484375 54.839844 137.675781 54.144531 137.738281 C 53.507812 137.800781 52.875 137.867188 52.242188 137.867188 C 51.988281 137.867188 51.734375 137.738281 51.417969 137.613281 C 52.496094 136.722656 53.574219 135.898438 54.523438 135.074219 C 55.601562 134.125 56.742188 133.300781 58.074219 132.726562 C 60.929688 131.523438 63.785156 130.316406 66.636719 129.175781 C 68.285156 128.542969 69.9375 128.480469 71.648438 128.859375 C 73.296875 129.238281 74.882812 129.875 76.46875 130.507812 C 77.925781 131.078125 79.386719 131.585938 80.910156 132.09375 C 81.542969 132.285156 82.242188 132.472656 82.875 132.601562 C 82.8125 132.855469 82.621094 132.855469 82.429688 132.855469 Z M 110.527344 152.074219 C 108.625 152.199219 106.847656 152.644531 105.074219 153.277344 C 104.503906 153.46875 103.867188 153.53125 103.234375 153.59375 C 101.332031 153.65625 99.492188 153.277344 97.714844 152.707031 C 95.496094 152.074219 93.277344 151.4375 91.054688 150.804688 C 89.851562 150.488281 88.644531 150.296875 87.378906 149.980469 C 87.378906 149.914062 87.378906 149.914062 87.378906 149.851562 C 87.757812 149.789062 88.140625 149.726562 88.582031 149.664062 C 90.550781 149.472656 92.515625 149.28125 94.480469 149.089844 C 96.890625 148.902344 99.238281 148.585938 101.648438 149.027344 C 103.234375 149.28125 104.820312 149.535156 106.339844 149.914062 C 107.230469 150.105469 108.117188 150.296875 109.003906 150.867188 C 108.6875 150.996094 108.496094 151.058594 108.308594 151.121094 C 107.164062 151.3125 105.960938 151.4375 104.820312 151.628906 C 103.867188 151.753906 102.917969 151.882812 101.964844 152.074219 C 101.648438 152.136719 101.332031 152.324219 100.949219 152.453125 C 100.949219 152.515625 101.015625 152.578125 101.015625 152.644531 C 103.488281 152.390625 105.898438 152.453125 108.308594 151.882812 C 109.195312 151.691406 110.082031 151.566406 111.160156 151.882812 C 110.84375 152.007812 110.652344 152.074219 110.527344 152.074219 Z M 106.660156 251.964844 C 104.25 250.0625 103.359375 246.953125 104.375 243.65625 C 105.328125 240.484375 108.179688 237.1875 112.492188 236.808594 C 112.746094 236.808594 113 236.808594 113.253906 236.808594 C 117.441406 236.808594 124.925781 239.597656 132.914062 255.960938 C 133.613281 257.355469 134.183594 258.6875 134.691406 259.957031 C 124.289062 262.808594 112.238281 256.339844 106.660156 251.964844 Z M 153.464844 131.207031 C 148.898438 110.210938 149.722656 96.195312 156.128906 87.0625 C 161.773438 79.007812 171.160156 75.710938 181.054688 72.285156 C 182.832031 71.652344 184.667969 71.015625 186.445312 70.382812 C 207.058594 62.773438 208.136719 59.15625 210.101562 52.625 C 210.230469 52.179688 210.355469 51.671875 210.546875 51.226562 C 212.894531 43.808594 216.570312 38.859375 229.128906 34.230469 C 239.023438 30.550781 244.796875 28.078125 247.585938 24.589844 C 246.570312 30.804688 242.003906 42.792969 222.851562 49.515625 C 208.769531 54.464844 207.820312 61.628906 206.933594 68.480469 C 206.042969 75.074219 205.15625 81.925781 192.34375 87.632812 C 175.09375 95.246094 166.402344 102.285156 166.53125 108.4375 C 166.59375 111.988281 169.703125 114.96875 175.601562 117.316406 C 178.453125 118.457031 179.785156 119.917969 179.722656 121.945312 C 179.46875 128.035156 166.59375 137.105469 155.429688 142.179688 C 154.988281 138.753906 154.289062 135.136719 153.464844 131.207031 Z M 136.910156 184.164062 C 131.140625 177.824219 128.730469 171.289062 129.871094 165.074219 C 131.648438 155.625 141.035156 148.710938 149.089844 146.300781 C 150.738281 145.792969 152.449219 145.160156 154.289062 144.460938 C 158.347656 172.558594 149.976562 177.316406 136.910156 184.164062 Z M 257.542969 95.117188 C 255.261719 94.292969 253.484375 92.960938 252.46875 92.136719 C 253.484375 91.820312 254.4375 91.375 255.324219 90.933594 C 255.703125 91.375 256.402344 91.945312 257.355469 92.515625 C 257.417969 93.40625 257.480469 94.292969 257.542969 95.117188 Z M 256.78125 90.105469 C 257.035156 89.917969 257.289062 89.789062 257.480469 89.601562 C 257.480469 89.980469 257.417969 90.296875 257.417969 90.679688 C 257.164062 90.488281 256.972656 90.296875 256.78125 90.105469 Z M 219.871094 138.691406 C 222.40625 138.691406 224.4375 139.132812 225.386719 140.339844 C 225.957031 141.035156 226.085938 141.417969 226.148438 141.542969 C 225.640625 141.796875 223.546875 141.671875 221.964844 141.542969 C 220.757812 141.480469 219.425781 141.355469 218.15625 141.355469 C 218.917969 140.65625 219.488281 139.769531 219.871094 138.691406 Z M 206.933594 140.65625 C 210.609375 139.894531 214.667969 139.007812 218.15625 138.753906 C 217.648438 139.769531 216.953125 140.464844 216 140.910156 C 212.765625 142.496094 209.722656 141.925781 206.933594 140.65625 Z M 254.878906 148.519531 C 246.824219 163.488281 243.90625 172.75 241.75 179.472656 C 238.515625 189.746094 236.929688 194.882812 221.519531 207.378906 C 217.777344 210.421875 214.035156 212.640625 210.355469 214.226562 C 211.433594 213.277344 212.386719 212.136719 212.957031 210.738281 C 214.480469 206.996094 213.148438 202.429688 209.023438 197.167969 C 203.316406 189.9375 203 186.703125 203.695312 185.242188 C 204.523438 183.59375 207.375 183.339844 209.722656 183.339844 C 210.292969 183.339844 210.800781 183.339844 211.246094 183.339844 C 211.816406 183.339844 212.257812 183.339844 212.703125 183.339844 C 214.480469 183.277344 216.191406 182.390625 216.824219 181.183594 C 217.144531 180.550781 217.144531 179.851562 216.761719 179.28125 C 215.8125 177.886719 212.894531 177.378906 208.136719 177.824219 C 197.164062 178.835938 193.167969 174.144531 193.105469 174.082031 L 193.042969 174.015625 C 191.074219 172.179688 190.25 170.65625 190.632812 169.832031 C 191.710938 167.421875 201.351562 167.992188 207.121094 168.308594 C 213.273438 168.625 215.238281 168.6875 215.683594 167.609375 C 215.8125 167.359375 215.9375 166.851562 215.367188 166.28125 C 213.84375 164.628906 213.78125 163.996094 213.78125 163.933594 C 214.921875 164.121094 219.871094 165.011719 223.421875 163.363281 C 226.847656 161.777344 234.773438 163.042969 234.902344 163.042969 L 238.136719 163.550781 L 235.472656 161.585938 C 222.34375 151.945312 214.605469 154.484375 211.941406 156.066406 C 211.941406 155.878906 211.878906 155.75 211.878906 155.5625 C 211.433594 153.023438 210.925781 150.105469 211.054688 147 C 211.117188 145.792969 211.5 144.90625 212.257812 144.269531 C 214.289062 142.496094 218.539062 142.8125 221.898438 143.066406 C 224.945312 143.320312 226.972656 143.445312 227.671875 142.242188 C 228.179688 141.289062 227.417969 140.148438 226.71875 139.324219 C 225.453125 137.738281 223.167969 137.167969 220.441406 137.105469 C 221.898438 130.824219 219.488281 120.359375 217.015625 109.453125 C 215.050781 100.699219 212.957031 91.628906 212.957031 84.84375 C 212.957031 77.421875 218.539062 71.332031 223.296875 67.589844 C 233.824219 59.21875 247.777344 55.222656 252.40625 56.238281 C 256.023438 57.0625 258.683594 58.140625 260.207031 60.679688 C 262.492188 64.484375 261.984375 71.777344 258.683594 83.449219 C 258.304688 84.78125 258.050781 86.046875 257.859375 87.253906 C 249.804688 95.308594 223.613281 92.074219 223.359375 92.011719 L 223.167969 93.59375 C 223.484375 93.660156 225.707031 93.914062 228.941406 94.101562 C 229.511719 94.992188 232.046875 98.667969 235.789062 101.207031 L 236.675781 99.875 C 234.078125 98.097656 231.984375 95.625 230.96875 94.167969 C 232.300781 94.230469 233.824219 94.292969 235.34375 94.292969 C 235.472656 94.292969 235.664062 94.292969 235.789062 94.292969 C 236.613281 95.5 239.339844 99.113281 243.84375 100.636719 L 244.351562 99.113281 C 241.179688 97.972656 238.898438 95.625 237.753906 94.230469 C 239.46875 94.167969 241.179688 94.101562 242.894531 93.914062 C 243.652344 95.054688 246.128906 97.78125 252.089844 99.367188 L 252.46875 97.84375 C 248.09375 96.703125 245.808594 94.863281 244.730469 93.722656 C 246.824219 93.46875 248.855469 93.089844 250.757812 92.515625 C 251.644531 93.40625 254.117188 95.625 257.796875 96.703125 C 258.304688 99.8125 259.257812 102.730469 260.207031 105.710938 C 263.503906 115.921875 266.929688 126.320312 254.878906 148.519531 Z M 254.878906 148.519531 " fill-opacity="1" fill-rule="nonzero"/></g><path fill="#000000" d="M 65.496094 133.234375 C 65.433594 133.234375 65.433594 133.234375 65.496094 133.234375 C 65.433594 133.300781 65.496094 133.234375 65.496094 133.234375 Z M 65.496094 133.234375 " fill-opacity="1" fill-rule="nonzero"/><path fill="#000000" d="M 64.796875 133.617188 C 64.988281 133.488281 65.242188 133.363281 65.433594 133.234375 C 65.179688 133.300781 64.925781 133.300781 64.671875 133.363281 C 64.734375 133.488281 64.734375 133.550781 64.796875 133.617188 Z M 64.796875 133.617188 " fill-opacity="1" fill-rule="nonzero"/></svg>