<svg xmlns="http://www.w3.org/2000/svg" xmlns:xlink="http://www.w3.org/1999/xlink" width="500" zoomAndPan="magnify" viewBox="0 0 375 374.999991" height="500" preserveAspectRatio="xMidYMid meet" version="1.0"><defs><g/><clipPath id="c06f18e210"><path d="M 61.320312 51 L 330.570312 51 L 330.570312 325 L 61.320312 325 Z M 61.320312 51 " clip-rule="nonzero"/></clipPath></defs><g clip-path="url(#c06f18e210)"><path fill="#cca0a0" d="M 330.628906 179.320312 C 330.589844 220.105469 317.601562 256.210938 290.683594 286.925781 C 273.210938 306.867188 251.328125 319.640625 224.855469 323.695312 C 211.597656 325.726562 198.269531 325.398438 185.382812 321.554688 C 166.113281 315.808594 147.015625 309.492188 127.863281 303.367188 C 102.828125 295.359375 86.960938 278.054688 77.769531 253.945312 C 73.09375 241.679688 70.28125 228.960938 68.414062 216.027344 C 66.105469 200.050781 63.488281 184.097656 62.019531 168.039062 C 61.324219 160.476562 62.152344 152.515625 63.746094 145.046875 C 66.667969 131.371094 75.414062 121.488281 86.90625 113.894531 C 98.980469 105.910156 112.511719 101.996094 126.632812 99.941406 C 138.449219 98.222656 150.394531 97.324219 162.152344 95.3125 C 181.535156 91.988281 199.285156 83.953125 216.601562 74.96875 C 225.234375 70.484375 233.625 65.539062 242.21875 60.96875 C 250.046875 56.804688 258.160156 53.367188 267.015625 51.898438 C 283.230469 49.210938 296.140625 54.976562 306.25 67.417969 C 309.953125 72.007812 313.050781 76.976562 315.542969 82.324219 C 318.035156 87.671875 319.851562 93.242188 320.984375 99.03125 C 326.355469 125.5 330.480469 152.160156 330.628906 179.320312 Z M 330.628906 179.320312 " fill-opacity="1" fill-rule="nonzero"/></g><path fill="#bf8a03" d="M 333.027344 149.558594 C 338.089844 154.929688 341.226562 161.878906 343.136719 169.007812 C 345.558594 178.050781 346.101562 187.789062 343.273438 196.714844 C 330.777344 236.117188 266.386719 233.734375 257.296875 193.453125 C 248.601562 154.890625 304.101562 118.867188 333.027344 149.558594 Z M 333.027344 149.558594 " fill-opacity="1" fill-rule="nonzero"/><path fill="#74384f" d="M 339.519531 93.699219 C 342.046875 96.382812 343.613281 99.851562 344.566406 103.410156 C 345.777344 107.925781 346.046875 112.789062 344.632812 117.246094 C 338.394531 136.921875 306.242188 135.730469 301.703125 115.617188 C 297.359375 96.363281 325.074219 78.375 339.519531 93.699219 Z M 339.519531 93.699219 " fill-opacity="1" fill-rule="nonzero"/><g fill="#000000" fill-opacity="1"><g transform="translate(73.630319, 205.056936)"><g><path d="M 11.4375 -32.109375 C 12.738281 -32.109375 13.769531 -31.96875 14.53125 -31.6875 C 15.289062 -31.40625 16.070312 -30.992188 16.875 -30.453125 C 17.53125 -30.035156 18.035156 -29.828125 18.390625 -29.828125 C 18.660156 -29.828125 18.867188 -29.984375 19.015625 -30.296875 C 19.171875 -30.609375 19.289062 -31.109375 19.375 -31.796875 L 20.40625 -31.796875 C 20.257812 -30.066406 20.1875 -27.03125 20.1875 -22.6875 L 19.15625 -22.6875 C 18.976562 -25.09375 18.285156 -27.125 17.078125 -28.78125 C 15.867188 -30.4375 14.117188 -31.265625 11.828125 -31.265625 C 10.222656 -31.265625 8.914062 -30.78125 7.90625 -29.8125 C 6.894531 -28.84375 6.390625 -27.597656 6.390625 -26.078125 C 6.390625 -24.941406 6.648438 -23.957031 7.171875 -23.125 C 7.691406 -22.289062 8.351562 -21.578125 9.15625 -20.984375 C 9.957031 -20.390625 11.101562 -19.632812 12.59375 -18.71875 L 13.890625 -17.90625 C 15.765625 -16.75 17.242188 -15.726562 18.328125 -14.84375 C 19.421875 -13.96875 20.289062 -12.960938 20.9375 -11.828125 C 21.59375 -10.703125 21.921875 -9.378906 21.921875 -7.859375 C 21.921875 -5.148438 21.023438 -3.054688 19.234375 -1.578125 C 17.453125 -0.109375 15.191406 0.625 12.453125 0.625 C 11.023438 0.625 9.859375 0.472656 8.953125 0.171875 C 8.046875 -0.117188 7.175781 -0.519531 6.34375 -1.03125 C 5.6875 -1.445312 5.179688 -1.65625 4.828125 -1.65625 C 4.554688 -1.65625 4.34375 -1.5 4.1875 -1.1875 C 4.039062 -0.875 3.925781 -0.375 3.84375 0.3125 L 2.8125 0.3125 C 2.925781 -1.320312 2.984375 -4.894531 2.984375 -10.40625 L 4.015625 -10.40625 C 4.222656 -7.394531 4.96875 -4.953125 6.25 -3.078125 C 7.53125 -1.203125 9.492188 -0.265625 12.140625 -0.265625 C 13.753906 -0.265625 15.125 -0.765625 16.25 -1.765625 C 17.382812 -2.765625 17.953125 -4.242188 17.953125 -6.203125 C 17.953125 -7.867188 17.394531 -9.28125 16.28125 -10.4375 C 15.164062 -11.601562 13.398438 -12.914062 10.984375 -14.375 C 9.222656 -15.445312 7.800781 -16.398438 6.71875 -17.234375 C 5.632812 -18.066406 4.75 -19.070312 4.0625 -20.25 C 3.375 -21.425781 3.03125 -22.800781 3.03125 -24.375 C 3.03125 -26.882812 3.832031 -28.800781 5.4375 -30.125 C 7.050781 -31.445312 9.050781 -32.109375 11.4375 -32.109375 Z M 11.4375 -32.109375 "/></g></g></g><g fill="#000000" fill-opacity="1"><g transform="translate(99.562161, 205.056936)"><g><path d="M 25.28125 -3.609375 C 25.78125 -2.867188 26.332031 -2.28125 26.9375 -1.84375 C 27.550781 -1.414062 28.304688 -1.097656 29.203125 -0.890625 L 29.203125 0 C 27.773438 -0.09375 25.988281 -0.140625 23.84375 -0.140625 C 22.238281 -0.140625 20.707031 -0.09375 19.25 0 L 19.25 -0.890625 C 19.957031 -0.921875 20.472656 -1.007812 20.796875 -1.15625 C 21.128906 -1.3125 21.296875 -1.535156 21.296875 -1.828125 C 21.296875 -2.128906 21.148438 -2.488281 20.859375 -2.90625 L 14.328125 -12.734375 C 13.472656 -14.035156 12.742188 -14.882812 12.140625 -15.28125 C 11.546875 -15.6875 10.710938 -15.921875 9.640625 -15.984375 L 9.640625 -4.734375 C 9.640625 -3.597656 9.726562 -2.773438 9.90625 -2.265625 C 10.09375 -1.765625 10.429688 -1.425781 10.921875 -1.25 C 11.410156 -1.070312 12.191406 -0.953125 13.265625 -0.890625 L 13.265625 0 C 11.890625 -0.09375 10 -0.140625 7.59375 -0.140625 C 5.03125 -0.140625 3.125 -0.09375 1.875 0 L 1.875 -0.890625 C 2.945312 -0.953125 3.726562 -1.070312 4.21875 -1.25 C 4.707031 -1.425781 5.039062 -1.765625 5.21875 -2.265625 C 5.40625 -2.773438 5.5 -3.597656 5.5 -4.734375 L 5.5 -26.890625 C 5.5 -28.015625 5.40625 -28.828125 5.21875 -29.328125 C 5.039062 -29.835938 4.707031 -30.179688 4.21875 -30.359375 C 3.726562 -30.546875 2.945312 -30.664062 1.875 -30.71875 L 1.875 -31.609375 C 3.125 -31.523438 5.03125 -31.484375 7.59375 -31.484375 C 9.976562 -31.484375 11.867188 -31.523438 13.265625 -31.609375 L 13.265625 -30.71875 C 12.191406 -30.664062 11.410156 -30.546875 10.921875 -30.359375 C 10.429688 -30.179688 10.09375 -29.835938 9.90625 -29.328125 C 9.726562 -28.828125 9.640625 -28.015625 9.640625 -26.890625 L 9.640625 -16.875 C 11.816406 -16.96875 13.515625 -17.800781 14.734375 -19.375 L 19.03125 -24.828125 C 20.539062 -26.703125 21.296875 -28.128906 21.296875 -29.109375 C 21.296875 -30.148438 20.375 -30.6875 18.53125 -30.71875 L 18.53125 -31.609375 C 20.226562 -31.523438 21.941406 -31.484375 23.671875 -31.484375 C 25.304688 -31.484375 26.570312 -31.523438 27.46875 -31.609375 L 27.46875 -30.71875 C 26.476562 -30.570312 25.550781 -30.253906 24.6875 -29.765625 C 23.832031 -29.273438 23 -28.507812 22.1875 -27.46875 L 14.921875 -18.125 Z M 25.28125 -3.609375 "/></g></g></g><g fill="#000000" fill-opacity="1"><g transform="translate(130.626576, 205.056936)"><g><path d="M 13.265625 -30.71875 C 12.191406 -30.664062 11.410156 -30.546875 10.921875 -30.359375 C 10.429688 -30.179688 10.09375 -29.835938 9.90625 -29.328125 C 9.726562 -28.828125 9.640625 -28.015625 9.640625 -26.890625 L 9.640625 -4.734375 C 9.640625 -3.597656 9.726562 -2.773438 9.90625 -2.265625 C 10.09375 -1.765625 10.429688 -1.425781 10.921875 -1.25 C 11.410156 -1.070312 12.191406 -0.953125 13.265625 -0.890625 L 13.265625 0 C 11.890625 -0.09375 10 -0.140625 7.59375 -0.140625 C 5.03125 -0.140625 3.125 -0.09375 1.875 0 L 1.875 -0.890625 C 2.945312 -0.953125 3.726562 -1.070312 4.21875 -1.25 C 4.707031 -1.425781 5.039062 -1.765625 5.21875 -2.265625 C 5.40625 -2.773438 5.5 -3.597656 5.5 -4.734375 L 5.5 -26.890625 C 5.5 -28.015625 5.40625 -28.828125 5.21875 -29.328125 C 5.039062 -29.835938 4.707031 -30.179688 4.21875 -30.359375 C 3.726562 -30.546875 2.945312 -30.664062 1.875 -30.71875 L 1.875 -31.609375 C 3.125 -31.523438 5.03125 -31.484375 7.59375 -31.484375 C 9.976562 -31.484375 11.867188 -31.523438 13.265625 -31.609375 Z M 13.265625 -30.71875 "/></g></g></g><g fill="#000000" fill-opacity="1"><g transform="translate(147.587589, 205.056936)"><g><path d="M 29.921875 -30.71875 C 28.878906 -30.664062 28.101562 -30.507812 27.59375 -30.25 C 27.09375 -30 26.75 -29.582031 26.5625 -29 C 26.382812 -28.425781 26.296875 -27.570312 26.296875 -26.4375 L 26.296875 0.21875 L 25.28125 0.21875 L 6.515625 -28.765625 L 6.515625 -5.1875 C 6.515625 -4.019531 6.609375 -3.148438 6.796875 -2.578125 C 6.992188 -2.015625 7.375 -1.609375 7.9375 -1.359375 C 8.507812 -1.109375 9.390625 -0.953125 10.578125 -0.890625 L 10.578125 0 C 9.503906 -0.09375 7.988281 -0.140625 6.03125 -0.140625 C 4.238281 -0.140625 2.851562 -0.09375 1.875 0 L 1.875 -0.890625 C 2.914062 -0.953125 3.6875 -1.109375 4.1875 -1.359375 C 4.695312 -1.609375 5.039062 -2.023438 5.21875 -2.609375 C 5.40625 -3.191406 5.5 -4.050781 5.5 -5.1875 L 5.5 -26.890625 C 5.5 -28.015625 5.40625 -28.828125 5.21875 -29.328125 C 5.039062 -29.835938 4.707031 -30.179688 4.21875 -30.359375 C 3.726562 -30.546875 2.945312 -30.664062 1.875 -30.71875 L 1.875 -31.609375 C 2.851562 -31.523438 4.238281 -31.484375 6.03125 -31.484375 C 7.363281 -31.484375 8.523438 -31.523438 9.515625 -31.609375 L 25.28125 -7.328125 L 25.28125 -26.4375 C 25.28125 -27.59375 25.179688 -28.453125 24.984375 -29.015625 C 24.785156 -29.585938 24.40625 -30 23.84375 -30.25 C 23.28125 -30.507812 22.40625 -30.664062 21.21875 -30.71875 L 21.21875 -31.609375 C 22.28125 -31.523438 23.796875 -31.484375 25.765625 -31.484375 C 27.554688 -31.484375 28.941406 -31.523438 29.921875 -31.609375 Z M 29.921875 -30.71875 "/></g></g></g><g fill="#000000" fill-opacity="1"><g transform="translate(180.92821, 205.056936)"><g><path d="M 16.5625 -32.234375 C 18.351562 -32.234375 19.875 -31.976562 21.125 -31.46875 C 22.375 -30.96875 23.59375 -30.257812 24.78125 -29.34375 C 25.113281 -29.070312 25.394531 -28.9375 25.625 -28.9375 C 26.226562 -28.9375 26.617188 -29.828125 26.796875 -31.609375 L 27.828125 -31.609375 C 27.703125 -29.679688 27.640625 -26.257812 27.640625 -21.34375 L 26.609375 -21.34375 C 26.285156 -23.28125 25.988281 -24.671875 25.71875 -25.515625 C 25.445312 -26.367188 25 -27.179688 24.375 -27.953125 C 23.488281 -29.117188 22.351562 -29.988281 20.96875 -30.5625 C 19.582031 -31.144531 18.085938 -31.4375 16.484375 -31.4375 C 14.546875 -31.4375 12.851562 -30.796875 11.40625 -29.515625 C 9.96875 -28.234375 8.84375 -26.410156 8.03125 -24.046875 C 7.226562 -21.679688 6.828125 -18.90625 6.828125 -15.71875 C 6.828125 -12.46875 7.257812 -9.679688 8.125 -7.359375 C 8.988281 -5.046875 10.1875 -3.285156 11.71875 -2.078125 C 13.25 -0.867188 14.984375 -0.265625 16.921875 -0.265625 C 18.410156 -0.265625 19.851562 -0.546875 21.25 -1.109375 C 22.65625 -1.679688 23.757812 -2.53125 24.5625 -3.65625 C 25.15625 -4.488281 25.585938 -5.378906 25.859375 -6.328125 C 26.128906 -7.285156 26.378906 -8.75 26.609375 -10.71875 L 27.640625 -10.71875 C 27.640625 -5.59375 27.703125 -2.019531 27.828125 0 L 26.796875 0 C 26.703125 -0.945312 26.570312 -1.625 26.40625 -2.03125 C 26.25 -2.4375 26.019531 -2.640625 25.71875 -2.640625 C 25.476562 -2.640625 25.164062 -2.519531 24.78125 -2.28125 C 23.445312 -1.320312 22.164062 -0.597656 20.9375 -0.109375 C 19.71875 0.378906 18.242188 0.625 16.515625 0.625 C 13.691406 0.625 11.210938 -0.015625 9.078125 -1.296875 C 6.953125 -2.578125 5.300781 -4.429688 4.125 -6.859375 C 2.945312 -9.285156 2.359375 -12.179688 2.359375 -15.546875 C 2.359375 -18.816406 2.960938 -21.71875 4.171875 -24.25 C 5.378906 -26.78125 7.0625 -28.742188 9.21875 -30.140625 C 11.375 -31.535156 13.820312 -32.234375 16.5625 -32.234375 Z M 16.5625 -32.234375 "/></g></g></g><g fill="#000000" fill-opacity="1"><g transform="translate(213.465462, 205.056936)"><g><path d="M 25.3125 -3.75 C 26.03125 -1.90625 27.0625 -0.953125 28.40625 -0.890625 L 28.40625 0 C 27.207031 -0.09375 25.613281 -0.140625 23.625 -0.140625 C 21.0625 -0.140625 19.15625 -0.09375 17.90625 0 L 17.90625 -0.890625 C 19.039062 -0.953125 19.851562 -1.09375 20.34375 -1.3125 C 20.832031 -1.539062 21.078125 -1.953125 21.078125 -2.546875 C 21.078125 -3.046875 20.898438 -3.742188 20.546875 -4.640625 L 17.8125 -11.96875 L 7.015625 -11.96875 L 5.1875 -7.234375 C 4.582031 -5.628906 4.28125 -4.410156 4.28125 -3.578125 C 4.28125 -2.648438 4.597656 -1.976562 5.234375 -1.5625 C 5.878906 -1.144531 6.859375 -0.921875 8.171875 -0.890625 L 8.171875 0 C 6.472656 -0.09375 4.757812 -0.140625 3.03125 -0.140625 C 1.695312 -0.140625 0.582031 -0.09375 -0.3125 0 L -0.3125 -0.890625 C 1.175781 -1.242188 2.351562 -2.539062 3.21875 -4.78125 L 13.703125 -31.84375 L 14.421875 -31.84375 Z M 17.453125 -12.859375 L 12.453125 -26.21875 L 7.375 -12.859375 Z M 17.453125 -12.859375 "/></g></g></g><g fill="#000000" fill-opacity="1"><g transform="translate(243.414099, 205.056936)"><g><path d="M 29.46875 -2.234375 C 28.789062 -1.222656 28.109375 -0.492188 27.421875 -0.046875 C 26.734375 0.398438 25.820312 0.625 24.6875 0.625 C 23.46875 0.625 22.460938 0.269531 21.671875 -0.4375 C 20.890625 -1.15625 20.304688 -2.410156 19.921875 -4.203125 L 18.9375 -8.65625 C 18.570312 -10.207031 18.234375 -11.398438 17.921875 -12.234375 C 17.609375 -13.066406 17.140625 -13.734375 16.515625 -14.234375 C 15.890625 -14.742188 15.015625 -15 13.890625 -15 L 9.640625 -15 L 9.640625 -4.734375 C 9.640625 -3.597656 9.726562 -2.773438 9.90625 -2.265625 C 10.09375 -1.765625 10.429688 -1.425781 10.921875 -1.25 C 11.410156 -1.070312 12.191406 -0.953125 13.265625 -0.890625 L 13.265625 0 C 11.890625 -0.09375 10 -0.140625 7.59375 -0.140625 C 5.03125 -0.140625 3.125 -0.09375 1.875 0 L 1.875 -0.890625 C 2.945312 -0.953125 3.726562 -1.070312 4.21875 -1.25 C 4.707031 -1.425781 5.039062 -1.765625 5.21875 -2.265625 C 5.40625 -2.773438 5.5 -3.597656 5.5 -4.734375 L 5.5 -26.890625 C 5.5 -28.015625 5.40625 -28.828125 5.21875 -29.328125 C 5.039062 -29.835938 4.707031 -30.179688 4.21875 -30.359375 C 3.726562 -30.546875 2.945312 -30.664062 1.875 -30.71875 L 1.875 -31.609375 C 3.125 -31.523438 4.941406 -31.484375 7.328125 -31.484375 L 12.140625 -31.53125 C 12.710938 -31.5625 13.351562 -31.578125 14.0625 -31.578125 C 17.519531 -31.578125 20.175781 -30.851562 22.03125 -29.40625 C 23.894531 -27.957031 24.828125 -26.085938 24.828125 -23.796875 C 24.828125 -22.640625 24.550781 -21.472656 24 -20.296875 C 23.445312 -19.117188 22.523438 -18.0625 21.234375 -17.125 C 19.941406 -16.1875 18.253906 -15.554688 16.171875 -15.234375 L 16.703125 -15.140625 C 18.671875 -14.804688 20.097656 -14.207031 20.984375 -13.34375 C 21.878906 -12.488281 22.535156 -11.125 22.953125 -9.25 L 24.0625 -4.6875 C 24.363281 -3.320312 24.675781 -2.367188 25 -1.828125 C 25.332031 -1.296875 25.78125 -1.03125 26.34375 -1.03125 C 26.851562 -1.03125 27.28125 -1.160156 27.625 -1.421875 C 27.96875 -1.691406 28.359375 -2.125 28.796875 -2.71875 Z M 12.953125 -30.71875 C 12.023438 -30.71875 11.332031 -30.613281 10.875 -30.40625 C 10.414062 -30.195312 10.09375 -29.820312 9.90625 -29.28125 C 9.726562 -28.75 9.640625 -27.953125 9.640625 -26.890625 L 9.640625 -15.890625 L 12.640625 -15.890625 C 15.585938 -15.890625 17.609375 -16.546875 18.703125 -17.859375 C 19.804688 -19.171875 20.359375 -20.988281 20.359375 -23.3125 C 20.359375 -25.75 19.773438 -27.59375 18.609375 -28.84375 C 17.453125 -30.09375 15.566406 -30.71875 12.953125 -30.71875 Z M 12.953125 -30.71875 "/></g></g></g><g fill="#000000" fill-opacity="1"><g transform="translate(274.166099, 205.056936)"><g><path d="M 24.734375 -5.71875 C 24.734375 -4.019531 24.835938 -2.113281 25.046875 0 C 23.023438 -0.09375 19.617188 -0.140625 14.828125 -0.140625 C 9.109375 -0.140625 4.789062 -0.09375 1.875 0 L 1.875 -0.890625 C 2.945312 -0.953125 3.726562 -1.070312 4.21875 -1.25 C 4.707031 -1.425781 5.039062 -1.765625 5.21875 -2.265625 C 5.40625 -2.773438 5.5 -3.597656 5.5 -4.734375 L 5.5 -26.890625 C 5.5 -28.015625 5.40625 -28.828125 5.21875 -29.328125 C 5.039062 -29.835938 4.707031 -30.179688 4.21875 -30.359375 C 3.726562 -30.546875 2.945312 -30.664062 1.875 -30.71875 L 1.875 -31.609375 C 4.789062 -31.523438 9.109375 -31.484375 14.828125 -31.484375 C 19.203125 -31.484375 22.3125 -31.523438 24.15625 -31.609375 C 23.945312 -29.648438 23.84375 -27.894531 23.84375 -26.34375 C 23.84375 -25.1875 23.890625 -24.265625 23.984375 -23.578125 L 22.953125 -23.578125 C 22.742188 -25.515625 22.472656 -26.953125 22.140625 -27.890625 C 21.816406 -28.828125 21.269531 -29.507812 20.5 -29.9375 C 19.726562 -30.375 18.550781 -30.59375 16.96875 -30.59375 L 13.265625 -30.59375 C 12.191406 -30.59375 11.410156 -30.507812 10.921875 -30.34375 C 10.429688 -30.175781 10.09375 -29.835938 9.90625 -29.328125 C 9.726562 -28.828125 9.640625 -28.015625 9.640625 -26.890625 L 9.640625 -16.34375 L 12.59375 -16.34375 C 13.632812 -16.34375 14.4375 -16.585938 15 -17.078125 C 15.570312 -17.566406 15.953125 -18.144531 16.140625 -18.8125 C 16.335938 -19.488281 16.492188 -20.332031 16.609375 -21.34375 L 16.75 -22.234375 L 17.765625 -22.234375 C 17.679688 -20.984375 17.640625 -19.585938 17.640625 -18.046875 L 17.640625 -15.890625 C 17.640625 -14.378906 17.726562 -12.269531 17.90625 -9.5625 L 16.875 -9.5625 C 16.84375 -9.769531 16.753906 -10.488281 16.609375 -11.71875 C 16.460938 -12.957031 16.050781 -13.890625 15.375 -14.515625 C 14.707031 -15.140625 13.78125 -15.453125 12.59375 -15.453125 L 9.640625 -15.453125 L 9.640625 -4.734375 C 9.640625 -3.597656 9.726562 -2.773438 9.90625 -2.265625 C 10.09375 -1.765625 10.429688 -1.429688 10.921875 -1.265625 C 11.410156 -1.109375 12.191406 -1.03125 13.265625 -1.03125 L 16.515625 -1.03125 C 18.367188 -1.03125 19.773438 -1.273438 20.734375 -1.765625 C 21.703125 -2.253906 22.410156 -3.039062 22.859375 -4.125 C 23.304688 -5.21875 23.632812 -6.820312 23.84375 -8.9375 L 24.875 -8.9375 C 24.78125 -8.125 24.734375 -7.050781 24.734375 -5.71875 Z M 24.734375 -5.71875 "/></g></g></g><g fill="#000000" fill-opacity="1"><g transform="translate(134.971781, 244.872001)"><g><path d="M 2.203125 -15.6875 L 6.734375 -15.6875 C 8.398438 -15.6875 9.707031 -15.367188 10.65625 -14.734375 C 11.601562 -14.109375 12.078125 -13.144531 12.078125 -11.84375 C 12.078125 -11.039062 11.867188 -10.332031 11.453125 -9.71875 C 11.046875 -9.113281 10.472656 -8.691406 9.734375 -8.453125 L 9.734375 -8.359375 C 10.742188 -8.160156 11.535156 -7.738281 12.109375 -7.09375 C 12.691406 -6.457031 12.984375 -5.617188 12.984375 -4.578125 C 12.984375 -3.085938 12.453125 -1.953125 11.390625 -1.171875 C 10.335938 -0.390625 8.90625 0 7.09375 0 L 2.203125 0 Z M 6.375 -8.953125 C 9.019531 -8.953125 10.34375 -9.84375 10.34375 -11.625 C 10.34375 -12.5625 10.019531 -13.238281 9.375 -13.65625 C 8.738281 -14.070312 7.769531 -14.28125 6.46875 -14.28125 L 3.96875 -14.28125 L 3.96875 -8.953125 Z M 6.796875 -1.40625 C 8.234375 -1.40625 9.332031 -1.671875 10.09375 -2.203125 C 10.863281 -2.742188 11.25 -3.550781 11.25 -4.625 C 11.25 -6.601562 9.765625 -7.59375 6.796875 -7.59375 L 3.96875 -7.59375 L 3.96875 -1.40625 Z M 6.796875 -1.40625 "/></g></g></g><g fill="#000000" fill-opacity="1"><g transform="translate(151.344355, 244.872001)"><g><path d="M 4.703125 -6.15625 L 0 -15.6875 L 1.890625 -15.6875 L 3.984375 -11.125 L 4.390625 -10.25 C 5.023438 -8.863281 5.414062 -8.023438 5.5625 -7.734375 L 5.65625 -7.734375 L 6.0625 -8.578125 C 6.726562 -9.972656 7.128906 -10.820312 7.265625 -11.125 L 9.359375 -15.6875 L 11.203125 -15.6875 L 6.46875 -6.15625 L 6.46875 0 L 4.703125 0 Z M 4.703125 -6.15625 "/></g></g></g><g fill="#000000" fill-opacity="1"><g transform="translate(164.924887, 244.872001)"><g/></g></g><g fill="#000000" fill-opacity="1"><g transform="translate(172.109945, 244.872001)"><g><path d="M 2.203125 -15.6875 L 3.96875 -15.6875 L 3.96875 -9.046875 L 11.53125 -9.046875 L 11.53125 -15.6875 L 13.296875 -15.6875 L 13.296875 0 L 11.53125 0 L 11.53125 -7.5 L 3.96875 -7.5 L 3.96875 0 L 2.203125 0 Z M 2.203125 -15.6875 "/></g></g></g><g fill="#000000" fill-opacity="1"><g transform="translate(189.985931, 244.872001)"><g><path d="M 9.328125 -4.9375 L 3.484375 -4.9375 L 1.890625 0 L 0.09375 0 L 5.46875 -15.6875 L 7.421875 -15.6875 L 12.765625 0 L 10.90625 0 Z M 8.875 -6.34375 L 8.0625 -8.875 C 7.425781 -10.863281 6.890625 -12.640625 6.453125 -14.203125 L 6.34375 -14.203125 C 5.820312 -12.273438 5.289062 -10.5 4.75 -8.875 L 3.9375 -6.34375 Z M 8.875 -6.34375 "/></g></g></g><g fill="#000000" fill-opacity="1"><g transform="translate(205.260783, 244.872001)"><g><path d="M 2.203125 -15.6875 L 4.375 -15.6875 L 7.453125 -7.09375 L 8.59375 -3.765625 L 8.6875 -3.765625 C 8.800781 -4.066406 8.953125 -4.523438 9.140625 -5.140625 C 9.398438 -5.898438 9.625 -6.550781 9.8125 -7.09375 L 12.84375 -15.6875 L 15.046875 -15.6875 L 15.046875 0 L 13.390625 0 L 13.390625 -9.078125 C 13.390625 -10.023438 13.460938 -11.535156 13.609375 -13.609375 L 13.515625 -13.609375 L 12.265625 -10.046875 L 9.21875 -1.625 L 7.96875 -1.625 L 4.890625 -10.046875 L 3.65625 -13.609375 L 3.5625 -13.609375 L 3.609375 -13.015625 C 3.734375 -11.328125 3.796875 -10.015625 3.796875 -9.078125 L 3.796875 0 L 2.203125 0 Z M 2.203125 -15.6875 "/></g></g></g><g fill="#000000" fill-opacity="1"><g transform="translate(224.878818, 244.872001)"><g><path d="M 2.203125 -15.6875 L 4.375 -15.6875 L 7.453125 -7.09375 L 8.59375 -3.765625 L 8.6875 -3.765625 C 8.800781 -4.066406 8.953125 -4.523438 9.140625 -5.140625 C 9.398438 -5.898438 9.625 -6.550781 9.8125 -7.09375 L 12.84375 -15.6875 L 15.046875 -15.6875 L 15.046875 0 L 13.390625 0 L 13.390625 -9.078125 C 13.390625 -10.023438 13.460938 -11.535156 13.609375 -13.609375 L 13.515625 -13.609375 L 12.265625 -10.046875 L 9.21875 -1.625 L 7.96875 -1.625 L 4.890625 -10.046875 L 3.65625 -13.609375 L 3.5625 -13.609375 L 3.609375 -13.015625 C 3.734375 -11.328125 3.796875 -10.015625 3.796875 -9.078125 L 3.796875 0 L 2.203125 0 Z M 2.203125 -15.6875 "/></g></g></g><g fill="#000000" fill-opacity="1"><g transform="translate(244.496853, 244.872001)"><g><path d="M 2.203125 -15.6875 L 11.109375 -15.6875 L 11.109375 -14.1875 L 3.96875 -14.1875 L 3.96875 -9 L 9.984375 -9 L 9.984375 -7.515625 L 3.96875 -7.515625 L 3.96875 -1.5 L 11.34375 -1.5 L 11.34375 0 L 2.203125 0 Z M 2.203125 -15.6875 "/></g></g></g><g fill="#000000" fill-opacity="1"><g transform="translate(259.413753, 244.872001)"><g><path d="M 10.8125 0 L 6.921875 -6.78125 L 3.96875 -6.78125 L 3.96875 0 L 2.203125 0 L 2.203125 -15.6875 L 7 -15.6875 C 10.59375 -15.6875 12.390625 -14.238281 12.390625 -11.34375 C 12.390625 -10.144531 12.066406 -9.171875 11.421875 -8.421875 C 10.773438 -7.679688 9.878906 -7.191406 8.734375 -6.953125 L 12.828125 0 Z M 3.96875 -8.21875 L 6.703125 -8.21875 C 7.984375 -8.21875 8.957031 -8.476562 9.625 -9 C 10.289062 -9.519531 10.625 -10.300781 10.625 -11.34375 C 10.625 -12.375 10.296875 -13.113281 9.640625 -13.5625 C 8.992188 -14.019531 8.015625 -14.25 6.703125 -14.25 L 3.96875 -14.25 Z M 3.96875 -8.21875 "/></g></g></g></svg>